<svg width="236" height="99" viewBox="0 0 236 99" fill="none" xmlns="http://www.w3.org/2000/svg">
<g clip-path="url(#clip0_586_2294)">
<path d="M33.6793 45.3917L34.865 45.3889C40.23 35.1576 41.4321 25.3247 38.2749 14.706C41.9597 10.0101 47.0898 6.18794 53.4467 4.17932C47.7753 17.6571 43.1233 38.7406 36.199 45.4122C36.6565 45.4163 37.1098 45.4218 37.5577 45.4273C42.8815 39.4908 46.9276 25.1585 47.2477 24.7367C50.4145 22.5921 54.1789 21.0121 58.5657 20.42C54.2847 34.2618 46.8562 43.4119 40.0184 45.4672C49.2646 45.6375 55.6078 46.0524 55.91 46.5388C58.6674 50.9764 51.5754 88.732 47.9154 96.3777C46.3011 99.7506 13.5944 99.7588 12.2371 96.3777C9.24751 88.934 2.86721 62.2065 4.24246 46.5388C4.29604 45.9082 12.483 45.5304 23.3449 45.4177C15.2734 42.027 5.23991 31.2283 0 21.9353C8.61561 22.445 13.4613 22.8681 17.2298 25.7148C19.9144 33.5611 23.3381 41.2287 27.3429 45.3888C28.2277 45.3847 29.1249 45.3833 30.033 45.3833C24.9469 40.168 21.3693 29.9271 30.7996 16.6775C34.8567 27.6012 39.8453 35.7621 33.6793 45.3917ZM23.7997 47.2093V46.0305C-0.354444 46.3314 0.381984 47.1021 23.7997 47.2093ZM39.4427 46.058V47.1956C47.9209 47.1379 54.6763 46.9991 54.6763 46.7752C54.6763 46.3451 46.0168 46.1459 39.4427 46.058ZM37.555 36.2457C41.2864 24.0814 37.8339 12.9461 30.7996 0C23.9137 7.30355 22.9685 17.8797 24.5649 27.4433C25.7877 22.3544 28.1288 18.7191 31.0785 14.5783C33.8386 22.0124 37.6621 29.6635 37.555 36.2457ZM24.0758 30.1746C22.8915 24.6969 22.4821 18.8194 23.4191 13.306C20.4103 10.3151 16.7778 7.58383 12.6204 5.25922C15.7803 19.6699 21.4709 38.2062 28.339 44.9891C24.8589 40.7988 23.4521 35.4997 24.0758 30.1746ZM7.03002 49.8953C6.74013 60.7847 10.5801 83.5718 14.6949 94.4983C20.1904 96.4726 40.1103 96.4753 45.5221 94.4461C48.921 86.2619 53.8093 58.7321 53.5593 49.8939C43.2579 50.4105 17.3369 50.4091 7.03002 49.8953Z" fill="#086972"/>
<path d="M86.7447 60.4534C77.8142 60.4534 71.2158 54.3807 71.2158 44.8406C71.2158 35.3005 77.8138 29.2494 86.7447 29.2494C93.5108 29.2494 98.9319 32.7165 101.097 38.474L95.2129 40.6173C93.8681 37.0871 90.6531 35.0489 86.7448 35.0489C81.5126 35.0489 77.4991 38.705 77.4991 44.8408C77.4991 50.9766 81.5126 54.6538 86.7448 54.6538C90.6531 54.6538 93.8681 52.5945 95.2129 49.0644L101.097 51.2077C98.9322 56.9653 93.5109 60.4534 86.7447 60.4534ZM111.267 41.8566C112.36 39.9445 115.196 38.1794 118.327 38.1794V43.5796C113.746 43.5796 111.561 44.9244 111.561 49.5052V60.0326H105.467V38.4316H111.267L111.267 41.8566ZM131.944 60.4534C125.073 60.4534 120.114 56.2719 120.114 49.2118C120.114 42.1936 125.031 38.0122 131.944 38.0122C138.899 38.0122 143.795 42.1937 143.795 49.2118C143.795 56.2721 138.878 60.4534 131.944 60.4534ZM131.88 55.6415C135.389 55.6415 137.785 53.078 137.785 49.2116C137.785 45.3452 135.389 42.7816 131.88 42.7816C128.497 42.7816 126.123 45.3452 126.123 49.2116C126.123 53.078 128.497 55.6415 131.88 55.6415ZM160.962 38.0115C166.657 38.0115 171.364 42.193 171.364 49.2746C171.364 56.3562 166.657 60.5377 160.962 60.5377C158.147 60.5377 155.625 59.4451 154.344 57.4698V70.5392H148.292V38.4315H154.028L154.196 41.3313C155.394 39.188 158.021 38.0115 160.962 38.0115ZM159.596 55.5154C162.769 55.5154 165.312 53.204 165.312 49.2746C165.312 45.3452 162.769 43.0338 159.596 43.0338C156.36 43.0338 153.839 45.4923 153.839 49.2746C153.839 53.0569 156.36 55.5154 159.596 55.5154ZM183.53 60.4534C178.676 60.4534 174.914 58.5413 174.137 54.4438L179.201 53.0149C179.852 55.3263 181.491 56.2299 183.53 56.2299C185.021 56.2299 186.639 55.7676 186.597 54.0656C186.576 51.8173 183.172 51.6282 179.747 50.4095C177.163 49.5059 174.683 48.1191 174.683 44.4839C174.683 40.0502 178.361 38.012 183.151 38.012C187.354 38.012 190.863 39.609 191.704 43.7274L187.018 44.7781C186.366 42.7609 184.937 42.0464 183.172 42.0464C181.575 42.0464 180.21 42.6137 180.21 43.9585C180.21 45.6605 182.71 45.9967 185.421 46.7321C188.762 47.6357 192.418 49.0856 192.418 53.7084C192.418 58.6674 188.194 60.4534 183.53 60.4534ZM217.885 60.0331L215.679 53.7713H202.925L200.718 60.0331H194.268L205.447 29.6694H213.158L224.338 60.0331H217.887H217.885ZM204.774 48.4968H213.83L209.313 35.6156L204.774 48.4968ZM228.896 60.0331V29.6694H235.2V60.0331H228.896Z" fill="#086972"/>
</g>
<defs>
<clipPath id="clip0_586_2294">
<rect width="235.2" height="98.9105" fill="white"/>
</clipPath>
</defs>
</svg>
