<svg width="71" height="70" viewBox="0 0 71 70" fill="none" xmlns="http://www.w3.org/2000/svg">
<rect width="71" height="69.6346" rx="20" fill="white"/>
<g clip-path="url(#clip0_588_2504)">
<path d="M50.9914 23.2272H28.6828C28.4744 23.2272 28.2745 23.1444 28.1271 22.9971C27.9798 22.8497 27.897 22.6498 27.897 22.4414C27.897 22.233 27.9798 22.0331 28.1271 21.8858C28.2745 21.7384 28.4744 21.6556 28.6828 21.6556H50.2056V14.1657C50.2056 13.9573 50.2884 13.7574 50.4358 13.61C50.5831 13.4627 50.783 13.3799 50.9914 13.3799C51.1998 13.3799 51.3997 13.4627 51.5471 13.61C51.6944 13.7574 51.7772 13.9573 51.7772 14.1657V22.4414C51.7772 22.6498 51.6944 22.8497 51.5471 22.9971C51.3997 23.1444 51.1998 23.2272 50.9914 23.2272ZM50.9914 35.9439H32.7199C32.5115 35.9439 32.3116 35.8611 32.1642 35.7138C32.0168 35.5664 31.9341 35.3665 31.9341 35.1581C31.9341 34.9497 32.0168 34.7498 32.1642 34.6025C32.3116 34.4551 32.5115 34.3723 32.7199 34.3723H50.9914C51.1998 34.3723 51.3997 34.4551 51.5471 34.6025C51.6944 34.7498 51.7772 34.9497 51.7772 35.1581C51.7772 35.3665 51.6944 35.5664 51.5471 35.7138C51.3997 35.8611 51.1998 35.9439 50.9914 35.9439ZM50.9914 56.4782C50.783 56.4782 50.5831 56.3954 50.4358 56.2481C50.2884 56.1007 50.2056 55.9008 50.2056 55.6924V48.826H28.6828C28.4744 48.826 28.2745 48.7432 28.1271 48.5959C27.9798 48.4485 27.897 48.2486 27.897 48.0402C27.897 47.8318 27.9798 47.6319 28.1271 47.4846C28.2745 47.3372 28.4744 47.2544 28.6828 47.2544H50.9914C51.1998 47.2544 51.3997 47.3372 51.5471 47.4846C51.6944 47.6319 51.7772 47.8318 51.7772 48.0402V55.6928C51.7771 55.9011 51.6943 56.1009 51.5469 56.2482C51.3996 56.3955 51.1998 56.4782 50.9914 56.4782Z" fill="#C7CAD1"/>
<path d="M28.6828 44.983C28.4744 44.983 28.2745 44.9002 28.1271 44.7529C27.9798 44.6055 27.897 44.4056 27.897 44.1972V26.8152C27.897 26.6068 27.9798 26.4069 28.1271 26.2595C28.2745 26.1121 28.4744 26.0294 28.6828 26.0294C28.8912 26.0294 29.0911 26.1121 29.2384 26.2595C29.3858 26.4069 29.4686 26.6068 29.4686 26.8152V44.1972C29.4686 44.4056 29.3858 44.6055 29.2384 44.7529C29.0911 44.9002 28.8912 44.983 28.6828 44.983Z" fill="#44AC3D"/>
<path d="M36.7569 30.1588C36.7569 30.1588 32.3034 32.3402 30.529 33.8187C28.7547 35.2972 28.1547 37.8322 29.1896 38.6942C30.2245 39.5567 32.1282 39.064 33.8943 37.5784C36.0639 35.7534 36.7569 30.1588 36.7569 30.1588Z" fill="#64C35B"/>
<path d="M35.1571 30.9784C34.752 32.7689 33.9804 35.2552 32.6665 36.3604C31.2744 37.5316 29.7983 38.0821 28.728 37.8416C28.7964 38.1941 28.9465 38.4915 29.1897 38.6942C30.2246 39.5567 32.1282 39.064 33.8943 37.5784C36.0639 35.753 36.757 30.1588 36.757 30.1588C36.757 30.1588 36.0836 30.4889 35.1571 30.9784Z" fill="#44AC3D"/>
<path d="M20.4973 30.1588C20.4973 30.1588 24.9509 32.3402 26.7252 33.8187C28.4996 35.2972 29.0995 37.8322 28.0646 38.6942C27.0297 39.5567 25.1261 39.064 23.36 37.5784C21.1904 35.7534 20.4973 30.1588 20.4973 30.1588Z" fill="#64C35B"/>
<path d="M22.0972 30.9784C22.5023 32.7689 23.274 35.2552 24.5878 36.3604C25.9799 37.5316 27.456 38.0821 28.5263 37.8416C28.4579 38.1941 28.3078 38.4915 28.0646 38.6942C27.0297 39.5567 25.1261 39.064 23.36 37.5784C21.1904 35.753 20.4973 30.1588 20.4973 30.1588C20.4973 30.1588 21.1708 30.4889 22.0972 30.9784Z" fill="#44AC3D"/>
<path d="M28.4199 16.5337C28.4199 16.5337 24.4327 21.1939 24.4807 23.5427C24.5286 25.8915 26.6581 28.3275 28.4203 28.3491C30.1825 28.3711 32.9469 26.0808 32.8841 23.7321C32.8067 20.8462 28.4199 16.5337 28.4199 16.5337Z" fill="#64C35B"/>
<path d="M28.42 16.5337C28.42 16.5337 27.9237 17.114 27.2845 17.9666C28.5834 19.4793 30.3794 21.8945 30.4289 23.7321C30.4776 25.5481 28.8364 27.3244 27.2747 28.0285C27.6577 28.2261 28.0475 28.3444 28.4208 28.3491C30.1829 28.3711 32.9474 26.0808 32.8845 23.7321C32.8067 20.8462 28.42 16.5337 28.42 16.5337Z" fill="#44AC3D"/>
<path d="M30.4571 41.9034H26.9084C20.5716 41.9034 15.4348 47.0403 15.4348 53.377V53.7593H41.9306V53.377C41.9306 47.0403 36.7938 41.9034 30.4571 41.9034Z" fill="#C19774"/>
<path d="M29.9788 41.9034H27.3861C27.2717 41.9034 27.159 41.9089 27.0454 41.9121C33.4882 42.0916 38.6561 47.3251 38.6561 53.7593H41.9302C41.9306 46.5762 36.5796 41.9034 29.9788 41.9034Z" fill="#956C4C"/>
<path d="M21.6092 50.4907H20.6261C20.4177 50.4907 20.2179 50.4079 20.0705 50.2606C19.9231 50.1132 19.8403 49.9133 19.8403 49.7049C19.8403 49.4965 19.9231 49.2967 20.0705 49.1493C20.2179 49.0019 20.4177 48.9191 20.6261 48.9191H21.6092C21.8176 48.9191 22.0175 49.0019 22.1648 49.1493C22.3122 49.2967 22.395 49.4965 22.395 49.7049C22.395 49.9133 22.3122 50.1132 22.1648 50.2606C22.0175 50.4079 21.8176 50.4907 21.6092 50.4907ZM37.387 50.4907H36.404C36.1955 50.4907 35.9957 50.4079 35.8483 50.2606C35.7009 50.1132 35.6181 49.9133 35.6181 49.7049C35.6181 49.4965 35.7009 49.2967 35.8483 49.1493C35.9957 49.0019 36.1955 48.9191 36.404 48.9191H37.387C37.5954 48.9191 37.7953 49.0019 37.9426 49.1493C38.09 49.2967 38.1728 49.4965 38.1728 49.7049C38.1728 49.9133 38.09 50.1132 37.9426 50.2606C37.7953 50.4079 37.5954 50.4907 37.387 50.4907ZM31.6435 48.826H30.6601C30.4517 48.826 30.2518 48.7432 30.1045 48.5959C29.9571 48.4485 29.8743 48.2486 29.8743 48.0402C29.8743 47.8318 29.9571 47.6319 30.1045 47.4846C30.2518 47.3372 30.4517 47.2544 30.6601 47.2544H31.6435C31.8519 47.2544 32.0518 47.3372 32.1992 47.4846C32.3466 47.6319 32.4293 47.8318 32.4293 48.0402C32.4293 48.2486 32.3466 48.4485 32.1992 48.5959C32.0518 48.7432 31.8519 48.826 31.6435 48.826ZM26.5916 46.4002H25.6082C25.3997 46.4002 25.1999 46.3174 25.0525 46.1701C24.9051 46.0227 24.8223 45.8228 24.8223 45.6144C24.8223 45.406 24.9051 45.2061 25.0525 45.0588C25.1999 44.9114 25.3997 44.8286 25.6082 44.8286H26.5916C26.8 44.8286 26.9999 44.9114 27.1472 45.0588C27.2946 45.2061 27.3774 45.406 27.3774 45.6144C27.3774 45.8228 27.2946 46.0227 27.1472 46.1701C26.9999 46.3174 26.8 46.4002 26.5916 46.4002ZM27.4222 51.7182H26.4387C26.2303 51.7182 26.0305 51.6354 25.8831 51.488C25.7357 51.3406 25.6529 51.1408 25.6529 50.9324C25.6529 50.724 25.7357 50.5241 25.8831 50.3767C26.0305 50.2293 26.2303 50.1466 26.4387 50.1466H27.4222C27.6306 50.1466 27.8305 50.2293 27.9778 50.3767C28.1252 50.5241 28.208 50.724 28.208 50.9324C28.208 51.1408 28.1252 51.3406 27.9778 51.488C27.8305 51.6354 27.6306 51.7182 27.4222 51.7182Z" fill="white"/>
<path d="M50.9913 17.8743C53.0534 17.8743 54.7251 16.2369 54.7251 14.2171C54.7251 12.1974 53.0534 10.56 50.9913 10.56C48.9292 10.56 47.2576 12.1974 47.2576 14.2171C47.2576 16.2369 48.9292 17.8743 50.9913 17.8743Z" fill="#99BECE"/>
<path d="M50.9914 15.5157C51.7236 15.5157 52.3171 14.9343 52.3171 14.2171C52.3171 13.5 51.7236 12.9186 50.9914 12.9186C50.2593 12.9186 49.6658 13.5 49.6658 14.2171C49.6658 14.9343 50.2593 15.5157 50.9914 15.5157Z" fill="#6B99B0"/>
<path d="M50.9913 38.8034C53.0534 38.8034 54.7251 37.1661 54.7251 35.1463C54.7251 33.1265 53.0534 31.4891 50.9913 31.4891C48.9292 31.4891 47.2576 33.1265 47.2576 35.1463C47.2576 37.1661 48.9292 38.8034 50.9913 38.8034Z" fill="#99BECE"/>
<path d="M50.9914 36.4449C51.7236 36.4449 52.3171 35.8635 52.3171 35.1463C52.3171 34.4292 51.7236 33.8478 50.9914 33.8478C50.2593 33.8478 49.6658 34.4292 49.6658 35.1463C49.6658 35.8635 50.2593 36.4449 50.9914 36.4449Z" fill="#6B99B0"/>
<path d="M50.9913 59.28C53.0534 59.28 54.7251 57.6426 54.7251 55.6228C54.7251 53.6031 53.0534 51.9657 50.9913 51.9657C48.9292 51.9657 47.2576 53.6031 47.2576 55.6228C47.2576 57.6426 48.9292 59.28 50.9913 59.28Z" fill="#99BECE"/>
<path d="M50.9914 56.9214C51.7236 56.9214 52.3171 56.3401 52.3171 55.6229C52.3171 54.9057 51.7236 54.3243 50.9914 54.3243C50.2593 54.3243 49.6658 54.9057 49.6658 55.6229C49.6658 56.3401 50.2593 56.9214 50.9914 56.9214Z" fill="#6B99B0"/>
</g>
<defs>
<clipPath id="clip0_588_2504">
<rect width="48.72" height="48.72" fill="white" transform="translate(10.72 10.56)"/>
</clipPath>
</defs>
</svg>
