<svg width="71" height="70" viewBox="0 0 71 70" fill="none" xmlns="http://www.w3.org/2000/svg">
<rect width="71" height="69.6346" rx="20" fill="white"/>
<g clip-path="url(#clip0_594_2567)">
<path d="M19.0485 60H51.9517C52.388 60 52.8065 59.8267 53.115 59.5181C53.4235 59.2096 53.5969 58.7912 53.5969 58.3548V10.6452C53.5969 10.2088 53.4235 9.79038 53.115 9.48186C52.8065 9.17333 52.388 9 51.9517 9H19.0485C18.6122 9 18.1937 9.17333 17.8852 9.48186C17.5766 9.79038 17.4033 10.2088 17.4033 10.6452V58.3548C17.4033 58.7912 17.5766 59.2096 17.8852 59.5181C18.1937 59.8267 18.6122 60 19.0485 60Z" fill="#E3E4E8"/>
<path d="M21.0225 15.4248H49.9773V51.6718H21.0225V15.4248ZM37.1352 13.0352H33.865C33.6468 13.0352 33.4376 12.9485 33.2833 12.7942C33.1291 12.64 33.0424 12.4308 33.0424 12.2126C33.0424 11.9944 33.1291 11.7852 33.2833 11.6309C33.4376 11.4767 33.6468 11.39 33.865 11.39H37.1352C37.3533 11.39 37.5626 11.4767 37.7168 11.6309C37.8711 11.7852 37.9578 11.9944 37.9578 12.2126C37.9578 12.4308 37.8711 12.64 37.7168 12.7942C37.5626 12.9485 37.3533 13.0352 37.1352 13.0352Z" fill="white"/>
<path d="M35.4999 57.536C36.3883 57.536 37.1085 56.7749 37.1085 55.8361C37.1085 54.8973 36.3883 54.1362 35.4999 54.1362C34.6115 54.1362 33.8914 54.8973 33.8914 55.8361C33.8914 56.7749 34.6115 57.536 35.4999 57.536Z" fill="white"/>
<path d="M35.5001 44.2681C35.2819 44.2681 35.0727 44.1815 34.9184 44.0272C34.7642 43.8729 34.6775 43.6637 34.6775 43.4456V28.491C34.6775 28.2729 34.7642 28.0637 34.9184 27.9094C35.0727 27.7551 35.2819 27.6685 35.5001 27.6685C35.7182 27.6685 35.9275 27.7551 36.0817 27.9094C36.236 28.0637 36.3227 28.2729 36.3227 28.491V43.4456C36.3227 43.6637 36.236 43.8729 36.0817 44.0272C35.9275 44.1815 35.7182 44.2681 35.5001 44.2681Z" fill="#F9B341"/>
<path d="M35.2821 19.6454C35.2821 19.6454 31.9786 23.6546 32.0189 25.6753C32.0588 27.696 33.8228 29.7919 35.2829 29.8104C36.743 29.8293 39.0331 27.8589 38.9808 25.8382C38.9167 23.3556 35.2821 19.6454 35.2821 19.6454Z" fill="#FFD291"/>
<path d="M35.282 19.6454C35.282 19.6454 34.8535 20.1669 34.3089 20.9241C35.3816 22.2283 36.8359 24.2757 36.8762 25.8386C36.9161 27.3855 35.5835 28.8994 34.3015 29.5176C34.6289 29.6981 34.9629 29.8067 35.2824 29.8108C36.7425 29.8298 39.0326 27.8593 38.9804 25.8386C38.9166 23.3556 35.282 19.6454 35.282 19.6454Z" fill="#FCC054"/>
<path d="M42.1892 31.3676C42.1892 31.3676 38.4999 33.2443 37.0296 34.516C35.5596 35.7881 35.0628 37.9688 35.9199 38.7107C36.7775 39.4527 38.3543 39.0291 39.8173 37.7508C41.6146 36.1805 42.1892 31.3676 42.1892 31.3676Z" fill="#FFD291"/>
<path d="M41.0058 31.9948C40.2408 33.5482 40.0294 35.5553 38.9757 36.4758C37.7283 37.5657 36.3998 38.0313 35.5032 37.6858C35.5217 38.1177 35.6562 38.4829 35.9198 38.7107C36.7774 39.4527 38.3542 39.0291 39.8172 37.7508C41.6145 36.1805 42.1887 31.3676 42.1887 31.3676C42.1887 31.3676 41.698 31.6176 41.0058 31.9948Z" fill="#FCC054"/>
<path d="M28.8108 31.0551C28.8108 31.0551 32.5001 32.9318 33.9704 34.2035C35.4404 35.4756 35.9372 37.6563 35.0801 38.3982C34.223 39.1402 32.6457 38.7166 31.1827 37.4383C29.3854 35.868 28.8108 31.0551 28.8108 31.0551Z" fill="#FFD291"/>
<path d="M29.9942 31.6826C30.7592 33.2361 30.9706 35.2432 32.0243 36.1636C33.2717 37.2536 34.6002 37.7191 35.4968 37.3737C35.4783 37.8055 35.3438 38.1707 35.0802 38.3986C34.2226 39.1406 32.6457 38.7169 31.1828 37.4386C29.3854 35.8683 28.8113 31.0554 28.8113 31.0554C28.8113 31.0554 29.3019 31.3051 29.9942 31.6826Z" fill="#FCC054"/>
<path d="M36.6038 41.4718H34.3956C28.944 41.4718 24.5247 45.8911 24.5247 51.3428V51.6718H46.4748V51.3428C46.4748 45.8911 42.0555 41.4718 36.6038 41.4718Z" fill="#C19774"/>
<path d="M36.3745 41.4718H34.6257C34.353 41.4718 34.084 41.4858 33.8167 41.5072C39.0162 41.9238 43.1081 46.3135 43.1081 51.6718H46.4749C46.4749 46.0384 41.9528 41.4718 36.3745 41.4718Z" fill="#956C4C"/>
<path d="M29.6399 49.0062H28.8255C28.6073 49.0062 28.3981 48.9196 28.2439 48.7653C28.0896 48.6111 28.0029 48.4018 28.0029 48.1837C28.0029 47.9655 28.0896 47.7563 28.2439 47.602C28.3981 47.4478 28.6073 47.3611 28.8255 47.3611H29.6399C29.858 47.3611 30.0673 47.4478 30.2215 47.602C30.3758 47.7563 30.4624 47.9655 30.4624 48.1837C30.4624 48.4018 30.3758 48.6111 30.2215 48.7653C30.0673 48.9196 29.858 49.0062 29.6399 49.0062ZM42.7111 49.0062H41.8967C41.6786 49.0062 41.4693 48.9196 41.3151 48.7653C41.1608 48.6111 41.0741 48.4018 41.0741 48.1837C41.0741 47.9655 41.1608 47.7563 41.3151 47.602C41.4693 47.4478 41.6786 47.3611 41.8967 47.3611H42.7111C42.9292 47.3611 43.1385 47.4478 43.2927 47.602C43.447 47.7563 43.5337 47.9655 43.5337 48.1837C43.5337 48.4018 43.447 48.6111 43.2927 48.7653C43.1385 48.9196 42.9292 49.0062 42.7111 49.0062ZM37.9529 47.5737H37.1385C36.9203 47.5737 36.7111 47.4871 36.5569 47.3328C36.4026 47.1785 36.3159 46.9693 36.3159 46.7511C36.3159 46.533 36.4026 46.3238 36.5569 46.1695C36.7111 46.0152 36.9203 45.9286 37.1385 45.9286H37.9529C38.171 45.9286 38.3803 46.0152 38.5345 46.1695C38.6888 46.3238 38.7754 46.533 38.7754 46.7511C38.7754 46.9693 38.6888 47.1785 38.5345 47.3328C38.3803 47.4871 38.171 47.5737 37.9529 47.5737ZM33.768 45.4868H32.9536C32.7355 45.4868 32.5262 45.4002 32.372 45.2459C32.2177 45.0916 32.131 44.8824 32.131 44.6643C32.131 44.4461 32.2177 44.2369 32.372 44.0826C32.5262 43.9283 32.7355 43.8417 32.9536 43.8417H33.768C33.9861 43.8417 34.1954 43.9283 34.3496 44.0826C34.5039 44.2369 34.5906 44.4461 34.5906 44.6643C34.5906 44.8824 34.5039 45.0916 34.3496 45.2459C34.1954 45.4002 33.9861 45.4868 33.768 45.4868ZM34.4557 50.062H33.6413C33.4231 50.062 33.2139 49.9754 33.0597 49.8211C32.9054 49.6668 32.8187 49.4576 32.8187 49.2394C32.8187 49.0213 32.9054 48.8121 33.0597 48.6578C33.2139 48.5035 33.4231 48.4169 33.6413 48.4169H34.4557C34.6738 48.4169 34.8831 48.5035 35.0373 48.6578C35.1916 48.8121 35.2782 49.0213 35.2782 49.2394C35.2782 49.4576 35.1916 49.6668 35.0373 49.8211C34.8831 49.9754 34.6738 50.062 34.4557 50.062Z" fill="white"/>
</g>
<defs>
<clipPath id="clip0_594_2567">
<rect width="51" height="51" fill="white" transform="translate(10 9)"/>
</clipPath>
</defs>
</svg>
