<svg width="71" height="70" viewBox="0 0 71 70" fill="none" xmlns="http://www.w3.org/2000/svg">
<rect width="71" height="69.6346" rx="20" fill="white"/>
<g clip-path="url(#clip0_594_2566)">
<path d="M24.4143 56H14.6935C14.5096 56 14.3332 55.9269 14.2031 55.7969C14.0731 55.6668 14 55.4904 14 55.3065V45.49C14 45.306 14.0731 45.1296 14.2031 44.9996C14.3332 44.8695 14.5096 44.7964 14.6935 44.7964C14.8775 44.7964 15.0539 44.8695 15.184 44.9996C15.314 45.1296 15.3871 45.306 15.3871 45.49V54.6129H24.4143C24.5983 54.6129 24.7747 54.686 24.9047 54.816C25.0348 54.9461 25.1079 55.1225 25.1079 55.3065C25.1079 55.4904 25.0348 55.6668 24.9047 55.7969C24.7747 55.9269 24.5983 56 24.4143 56ZM56.3065 56H46.5968C46.4128 56 46.2364 55.9269 46.1064 55.7969C45.9763 55.6668 45.9032 55.4904 45.9032 55.3065C45.9032 55.1225 45.9763 54.9461 46.1064 54.816C46.2364 54.686 46.4128 54.6129 46.5968 54.6129H55.6129V45.49C55.6129 45.306 55.686 45.1296 55.816 44.9996C55.9461 44.8695 56.1225 44.7964 56.3065 44.7964C56.4904 44.7964 56.6668 44.8695 56.7969 44.9996C56.9269 45.1296 57 45.306 57 45.49V55.3065C57 55.4904 56.9269 55.6668 56.7969 55.7969C56.6668 55.9269 56.4904 56 56.3065 56ZM56.3065 23.99C56.1225 23.99 55.9461 23.9169 55.816 23.7868C55.686 23.6568 55.6129 23.4804 55.6129 23.2964V14.3871H46.4626C46.2786 14.3871 46.1022 14.314 45.9722 14.184C45.8421 14.0539 45.769 13.8775 45.769 13.6935C45.769 13.5096 45.8421 13.3332 45.9722 13.2031C46.1022 13.0731 46.2786 13 46.4626 13H56.3065C56.4904 13 56.6668 13.0731 56.7969 13.2031C56.9269 13.3332 57 13.5096 57 13.6935V23.2964C57 23.4804 56.9269 23.6568 56.7969 23.7868C56.6668 23.9169 56.4904 23.99 56.3065 23.99ZM14.6935 24.1079C14.5096 24.1079 14.3332 24.0348 14.2031 23.9047C14.0731 23.7747 14 23.5983 14 23.4143V13.6935C14 13.5096 14.0731 13.3332 14.2031 13.2031C14.3332 13.0731 14.5096 13 14.6935 13H24.269C24.453 13 24.6294 13.0731 24.7594 13.2031C24.8895 13.3332 24.9626 13.5096 24.9626 13.6935C24.9626 13.8775 24.8895 14.0539 24.7594 14.184C24.6294 14.314 24.453 14.3871 24.269 14.3871H15.3871V23.4143C15.3871 23.5983 15.314 23.7747 15.184 23.9047C15.0539 24.0348 14.8775 24.1079 14.6935 24.1079Z" fill="#6B99B0"/>
<path d="M33.5602 30.1126C33.8303 29.5467 35.5292 25.8247 33.6986 21.7564C31.5454 16.9702 26.4354 15.9878 26.0099 15.9136C25.8424 16.9317 25.1298 21.9311 28.5035 26.2402C30.2319 28.4477 32.3285 29.574 33.5602 30.1126Z" fill="#64C35B"/>
<path d="M33.6988 21.7564C31.5453 16.9702 26.4353 15.9878 26.0098 15.9136C25.9635 16.1995 25.9266 16.4869 25.8992 16.7753C27.6941 17.4189 30.5394 18.9128 32.0086 22.1787C33.3569 25.1752 32.7906 27.9789 32.2906 29.477C32.7026 29.7104 33.1263 29.9226 33.5601 30.1126C33.8302 29.5467 35.5291 25.8247 33.6988 21.7564Z" fill="#44AC3D"/>
<path d="M35.51 32.3251C36.3138 29.3782 38.7139 27.198 41.4926 26.8485C45.0668 26.399 48.7845 29.0394 49.5693 33.1074C49.0155 33.5644 46.2957 35.7123 42.2905 35.4543C38.4004 35.2043 36.0264 32.8608 35.51 32.3251Z" fill="#64C35B"/>
<path d="M42.7441 33.6397C39.2045 33.4118 36.9255 31.455 36.1536 30.7001C35.8802 31.2164 35.6644 31.7612 35.51 32.3247C36.0267 32.8601 38.4004 35.204 42.2905 35.4543C46.2957 35.712 49.0155 33.5644 49.5693 33.1074C49.4866 32.6907 49.3708 32.2813 49.2232 31.8829C48.0393 32.668 45.7551 33.8335 42.7441 33.6397Z" fill="#44AC3D"/>
<path d="M33.3779 36.9423C31.7459 34.1175 28.4273 32.9173 25.7717 33.9181C23.7986 34.6616 22.3948 36.5435 22.0713 38.757C23.9091 39.4374 25.8883 39.6454 27.8274 39.3618C29.8591 39.0608 31.7745 38.2259 33.3779 36.9423Z" fill="#64C35B"/>
<path d="M32.2962 35.5272C30.8256 36.5564 29.1355 37.2287 27.3598 37.4909C25.7379 37.7287 24.0841 37.6223 22.506 37.1788C22.2966 37.6848 22.1506 38.2148 22.0715 38.7567C23.9093 39.4371 25.8886 39.6451 27.8276 39.3614C29.8593 39.0604 31.7747 38.2255 33.3781 36.942C33.0799 36.4257 32.7163 35.9502 32.2962 35.5272Z" fill="#44AC3D"/>
<path d="M36.9978 31.662C36.9355 31.5956 36.8607 31.5421 36.7776 31.5046C36.6946 31.4672 36.605 31.4464 36.5139 31.4436C36.4229 31.4408 36.3322 31.456 36.247 31.4883C36.1618 31.5206 36.0838 31.5694 36.0175 31.6319C35.5913 32.0324 35.2459 32.5456 34.9751 33.0744C34.7213 31.8108 34.3879 30.5644 33.9771 29.3428C33.9167 29.1707 33.791 29.0293 33.6271 28.9492C33.4632 28.8692 33.2744 28.8569 33.1016 28.915C32.9287 28.9732 32.7857 29.0971 32.7035 29.2599C32.6213 29.4227 32.6066 29.6113 32.6625 29.7849C33.4652 32.1697 33.9564 34.6481 34.1241 37.1587C33.734 36.7674 33.2719 36.455 32.7634 36.2387C32.5941 36.1668 32.4031 36.165 32.2325 36.2339C32.0619 36.3027 31.9256 36.4365 31.8536 36.6058C31.7816 36.7751 31.7799 36.9661 31.8487 37.1367C31.9176 37.3073 32.0514 37.4436 32.2207 37.5156C33.3591 37.9997 34.1064 39.0015 34.1706 40.1302C34.1713 40.1396 34.1737 40.1479 34.1747 40.1573C34.1562 40.7476 34.1205 41.3372 34.0679 41.9255C34.0578 42.0172 34.0661 42.1099 34.0923 42.1983C34.1185 42.2868 34.1621 42.3691 34.2204 42.4405C34.2788 42.5119 34.3508 42.5709 34.4323 42.6141C34.5138 42.6573 34.603 42.6838 34.6949 42.6921C34.7867 42.7004 34.8793 42.6903 34.9672 42.6624C35.0551 42.6345 35.1365 42.5894 35.2068 42.5296C35.277 42.4699 35.3346 42.3967 35.3762 42.3144C35.4179 42.2321 35.4426 42.1423 35.4491 42.0503C35.6592 39.7494 35.6147 37.4324 35.3167 35.1412C35.4977 34.6543 35.9811 33.5696 36.9673 32.6424C37.0338 32.58 37.0873 32.5052 37.1248 32.4222C37.1623 32.3392 37.1831 32.2496 37.1859 32.1585C37.1887 32.0675 37.1736 31.9767 37.1413 31.8915C37.109 31.8063 37.0603 31.7284 36.9978 31.662Z" fill="#36932E"/>
<path d="M37.3802 41.2406H32.3114C26.761 41.2406 22.2612 45.7403 22.2612 51.2908V52.6717H47.4304V51.2908C47.4304 45.7403 42.9307 41.2406 37.3802 41.2406Z" fill="#C19774"/>
<path d="M47.4303 52.6717C48.1218 46.4776 43.3526 41.2406 37.0396 41.2406H33.6925C31.9878 41.2406 29.9606 41.319 28.5076 41.9879C29.284 41.8214 30.4998 42.0295 31.3261 42.0295H33.6329C39.6806 42.0295 44.6281 46.7269 45.0338 52.6717H47.4303Z" fill="#956C4C"/>
<path d="M28.1264 49.456H27.1926C27.0086 49.456 26.8322 49.3829 26.7022 49.2529C26.5721 49.1228 26.499 48.9464 26.499 48.7625C26.499 48.5785 26.5721 48.4021 26.7022 48.272C26.8322 48.142 27.0086 48.0689 27.1926 48.0689H28.1264C28.3104 48.0689 28.4868 48.142 28.6168 48.272C28.7469 48.4021 28.82 48.5785 28.82 48.7625C28.82 48.9464 28.7469 49.1228 28.6168 49.2529C28.4868 49.3829 28.3104 49.456 28.1264 49.456ZM43.1144 49.456H42.1805C41.9966 49.456 41.8202 49.3829 41.6901 49.2529C41.56 49.1228 41.4869 48.9464 41.4869 48.7625C41.4869 48.5785 41.56 48.4021 41.6901 48.272C41.8202 48.142 41.9966 48.0689 42.1805 48.0689H43.1144C43.2983 48.0689 43.4747 48.142 43.6048 48.272C43.7348 48.4021 43.8079 48.5785 43.8079 48.7625C43.8079 48.9464 43.7348 49.1228 43.6048 49.2529C43.4747 49.3829 43.2983 49.456 43.1144 49.456ZM37.6582 47.8508H36.7244C36.5404 47.8508 36.364 47.7777 36.2339 47.6476C36.1039 47.5176 36.0308 47.3412 36.0308 47.1572C36.0308 46.9733 36.1039 46.7969 36.2339 46.6668C36.364 46.5368 36.5404 46.4637 36.7244 46.4637H37.6582C37.8422 46.4637 38.0186 46.5368 38.1486 46.6668C38.2787 46.7969 38.3518 46.9733 38.3518 47.1572C38.3518 47.3412 38.2787 47.5176 38.1486 47.6476C38.0186 47.7777 37.8422 47.8508 37.6582 47.8508ZM32.8596 45.5118H31.9257C31.7418 45.5118 31.5653 45.4387 31.4353 45.3087C31.3052 45.1786 31.2321 45.0022 31.2321 44.8182C31.2321 44.6343 31.3052 44.4579 31.4353 44.3278C31.5653 44.1978 31.7418 44.1247 31.9257 44.1247H32.8596C33.0435 44.1247 33.2199 44.1978 33.35 44.3278C33.48 44.4579 33.5531 44.6343 33.5531 44.8182C33.5531 45.0022 33.48 45.1786 33.35 45.3087C33.2199 45.4387 33.0435 45.5118 32.8596 45.5118ZM33.6485 50.6392H32.7146C32.5307 50.6392 32.3543 50.5661 32.2242 50.4361C32.0941 50.306 32.0211 50.1296 32.0211 49.9456C32.0211 49.7617 32.0941 49.5853 32.2242 49.4552C32.3543 49.3252 32.5307 49.2521 32.7146 49.2521H33.6485C33.8324 49.2521 34.0088 49.3252 34.1389 49.4552C34.2689 49.5853 34.342 49.7617 34.342 49.9456C34.342 50.1296 34.2689 50.306 34.1389 50.4361C34.0088 50.5661 33.8324 50.6392 33.6485 50.6392Z" fill="white"/>
</g>
<defs>
<clipPath id="clip0_594_2566">
<rect width="43" height="43" fill="white" transform="translate(14 13)"/>
</clipPath>
</defs>
</svg>
