<svg width="71" height="70" viewBox="0 0 71 70" fill="none" xmlns="http://www.w3.org/2000/svg">
<rect width="71" height="69.6346" rx="20" fill="white"/>
<g clip-path="url(#clip0_594_2568)">
<path d="M59.239 31.4427H34.5848L32.8237 36.4772V41.5113H61L59.239 31.4427Z" fill="#99BECE"/>
<path d="M59.2389 31.4427H57.0378L58.7989 41.5113H61L59.2389 31.4427Z" fill="#6B99B0"/>
<path d="M28.5216 31.8647L25.1496 29.7382C25.0362 29.6668 24.905 29.6289 24.771 29.6289H23.6362V27.1074C23.6362 26.9192 23.5614 26.7387 23.4283 26.6056C23.2952 26.4725 23.1147 26.3977 22.9265 26.3977C22.7383 26.3977 22.5578 26.4725 22.4247 26.6056C22.2916 26.7387 22.2168 26.9192 22.2168 27.1074V29.6289H21.0821C20.9483 29.6289 20.8166 29.6668 20.7035 29.7382L17.3314 31.8647C17.23 31.9286 17.1464 32.0171 17.0885 32.1221C17.0305 32.227 17.0001 32.3449 17 32.4647V35.9627C17 36.1529 17.0763 36.3353 17.2122 36.4687L19.3895 38.6095C19.5237 38.7415 19.7049 38.8147 19.8932 38.8131C20.0814 38.8115 20.2613 38.7352 20.3933 38.601C20.5253 38.4667 20.5986 38.2855 20.597 38.0973C20.5954 37.909 20.5191 37.7291 20.3848 37.5971L18.4194 35.6654V32.8561L21.2872 31.0479H24.5659L27.4337 32.8561V35.6444L25.267 37.5733C24.5868 38.1791 25.5239 39.2446 26.2109 38.6333L28.6153 36.4925C28.6901 36.4259 28.7499 36.3443 28.7909 36.2529C28.8319 36.1615 28.853 36.0625 28.853 35.9624V32.4644C28.8528 32.3446 28.8222 32.2268 28.7643 32.122C28.7064 32.0172 28.6229 31.9287 28.5216 31.8647Z" fill="#9B9FAB"/>
<path d="M42.5328 16.0442H38.9639L44.5405 29.8655H49.2833L42.5328 16.0442Z" fill="#FFD291"/>
<path d="M22.9688 14.2806V17.8028L40.8416 18.3822V13.7012L22.9688 14.2806Z" fill="#FFD291"/>
<path d="M21.4006 17.4235H24.5044V24.412H21.4006V17.4235Z" fill="#FFD291"/>
<path d="M39.2807 45.2772C41.388 45.2772 43.0962 43.5911 43.0962 41.5113C43.0962 39.4314 41.388 37.7454 39.2807 37.7454C37.1734 37.7454 35.4651 39.4314 35.4651 41.5113C35.4651 43.5911 37.1734 45.2772 39.2807 45.2772Z" fill="#E3E4E8"/>
<path d="M39.2806 42.8288C40.0191 42.8288 40.6177 42.2389 40.6177 41.5112C40.6177 40.7836 40.0191 40.1937 39.2806 40.1937C38.5422 40.1937 37.9436 40.7836 37.9436 41.5112C37.9436 42.2389 38.5422 42.8288 39.2806 42.8288Z" fill="#9B9FAB"/>
<path d="M46.9118 35.138C49.0191 35.138 50.7274 33.452 50.7274 31.3721C50.7274 29.2923 49.0191 27.6062 46.9118 27.6062C44.8045 27.6062 43.0962 29.2923 43.0962 31.3721C43.0962 33.452 44.8045 35.138 46.9118 35.138Z" fill="#9ADCFE"/>
<path d="M46.9117 32.6896C47.6502 32.6896 48.2488 32.0997 48.2488 31.3721C48.2488 30.6444 47.6502 30.0546 46.9117 30.0546C46.1733 30.0546 45.5747 30.6444 45.5747 31.3721C45.5747 32.0997 46.1733 32.6896 46.9117 32.6896Z" fill="white"/>
<path d="M40.8415 19.0858C42.5436 19.0858 43.9233 17.724 43.9233 16.0441C43.9233 14.3642 42.5436 13.0024 40.8415 13.0024C39.1395 13.0024 37.7598 14.3642 37.7598 16.0441C37.7598 17.724 39.1395 19.0858 40.8415 19.0858Z" fill="#9ADCFE"/>
<path d="M40.8417 17.1098C41.4363 17.1098 41.9183 16.6327 41.9183 16.0442C41.9183 15.4557 41.4363 14.9786 40.8417 14.9786C40.2471 14.9786 39.7651 15.4557 39.7651 16.0442C39.7651 16.6327 40.2471 17.1098 40.8417 17.1098Z" fill="white"/>
<path d="M22.9687 19.0834C24.6708 19.0834 26.0505 17.7215 26.0505 16.0417C26.0505 14.3618 24.6708 13 22.9687 13C21.2667 13 19.887 14.3618 19.887 16.0417C19.887 17.7215 21.2667 19.0834 22.9687 19.0834Z" fill="#9ADCFE"/>
<path d="M22.9687 17.1072C23.5632 17.1072 24.0453 16.6302 24.0453 16.0417C24.0453 15.4532 23.5632 14.9761 22.9687 14.9761C22.3741 14.9761 21.8921 15.4532 21.8921 16.0417C21.8921 16.6302 22.3741 17.1072 22.9687 17.1072Z" fill="white"/>
<path d="M54.5431 45.2772C56.6504 45.2772 58.3587 43.5911 58.3587 41.5113C58.3587 39.4314 56.6504 37.7454 54.5431 37.7454C52.4358 37.7454 50.7275 39.4314 50.7275 41.5113C50.7275 43.5911 52.4358 45.2772 54.5431 45.2772Z" fill="#E3E4E8"/>
<path d="M54.5431 42.8288C55.2815 42.8288 55.8801 42.2389 55.8801 41.5112C55.8801 40.7836 55.2815 40.1937 54.5431 40.1937C53.8047 40.1937 53.2061 40.7836 53.2061 41.5112C53.2061 42.2389 53.8047 42.8288 54.5431 42.8288Z" fill="#9B9FAB"/>
<path d="M20.1992 24.412H25.7383V27.107H20.1992V24.412Z" fill="#99BECE"/>
<path d="M23.9041 24.412H25.7382V27.107H23.9041V24.412Z" fill="#6B99B0"/>
<path d="M26.1899 46.2405C26.3319 45.9293 27.2239 43.883 26.2627 41.6464C25.1318 39.015 22.4485 38.4749 22.2253 38.4341C22.1373 38.9937 21.7629 41.7426 23.5347 44.1115C24.4423 45.3254 25.543 45.9446 26.1899 46.2405Z" fill="#64C35B"/>
<path d="M26.2626 41.6464C25.1321 39.015 22.4485 38.4749 22.2253 38.4341C22.1868 38.6825 22.1605 38.9326 22.1465 39.1835C23.084 39.588 23.9775 40.4141 24.6758 42.04C25.3067 43.5079 25.5355 44.8904 25.306 45.7576C25.5889 45.9395 25.8844 46.101 26.1902 46.2409C26.3318 45.9293 27.2239 43.8833 26.2626 41.6464Z" fill="#44AC3D"/>
<path d="M27.2739 47.3928C27.682 45.8262 28.9009 44.6673 30.3117 44.4814C32.1263 44.2425 34.0144 45.6459 34.4126 47.8087C34.1315 48.0517 32.7502 49.1936 30.7166 49.0563C28.7419 48.9236 27.5365 47.6777 27.2739 47.3928Z" fill="#64C35B"/>
<path d="M30.7171 47.4226C29.2125 47.3211 28.1562 46.9836 27.6218 46.5074C27.4737 46.7889 27.3572 47.086 27.2744 47.3931C27.5366 47.6777 28.742 48.9239 30.7171 49.057C32.7506 49.1939 34.1317 48.0524 34.4131 47.8093C34.3498 47.4708 34.2467 47.1409 34.1061 46.8264C33.5402 47.2391 32.3369 47.5315 30.7171 47.4226Z" fill="#44AC3D"/>
<path d="M26.4632 49.9603C25.5282 48.2659 23.6273 47.5463 22.1061 48.1464C20.976 48.5924 20.1716 49.7211 19.9863 51.0486C21.0348 51.4562 22.1719 51.5813 23.2838 51.4112C24.9108 51.16 26.0051 50.3457 26.4632 49.9603Z" fill="#64C35B"/>
<path d="M25.8497 49.1187C25.333 49.531 24.2962 49.7559 22.8045 49.9862C21.725 50.153 20.8096 50.4855 20.1662 50.312C20.0837 50.5515 20.0235 50.7981 19.9863 51.0486C21.0348 51.4562 22.1719 51.5813 23.2838 51.4113C24.9111 51.16 26.0055 50.3453 26.4636 49.96C26.2951 49.6549 26.0888 49.3722 25.8497 49.1187Z" fill="#44AC3D"/>
<path d="M28.4903 47.1156C28.3896 46.9565 28.2299 46.844 28.0463 46.8026C27.8626 46.7613 27.6701 46.7946 27.511 46.8952C27.3748 46.9825 27.2482 47.0837 27.1331 47.1972C26.9833 46.5302 26.7948 45.8725 26.5685 45.2275C26.5375 45.1396 26.4896 45.0586 26.4273 44.9892C26.3651 44.9199 26.2898 44.8635 26.2057 44.8232C26.1217 44.7829 26.0305 44.7596 25.9374 44.7546C25.8444 44.7495 25.7512 44.7629 25.6633 44.7939C25.5754 44.8248 25.4945 44.8728 25.4251 44.935C25.3557 44.9973 25.2993 45.0726 25.259 45.1566C25.2188 45.2407 25.1955 45.3319 25.1904 45.4249C25.1854 45.518 25.1987 45.6111 25.2297 45.699C25.6219 46.8126 25.891 47.9657 26.0323 49.1378C25.8681 49.0707 25.6846 49.0678 25.5183 49.1296C25.352 49.1913 25.2149 49.3133 25.1342 49.4713C25.0492 49.6392 25.0343 49.834 25.0928 50.0129C25.1514 50.1918 25.2786 50.3401 25.4465 50.4251C25.8524 50.6309 26.1051 51.0827 26.1431 51.666C26.1336 51.9806 26.1155 52.2949 26.0888 52.6085C26.0744 52.795 26.1343 52.9796 26.2554 53.1222C26.3765 53.2647 26.549 53.3538 26.7353 53.3698C26.9217 53.3859 27.1069 53.3278 27.2506 53.2081C27.3943 53.0883 27.4849 52.9167 27.5028 52.7305C27.5347 52.359 27.5525 51.9893 27.5624 51.621L27.5628 51.6135L27.5624 51.611C27.5874 50.7151 27.5456 49.8185 27.4372 48.9288C27.4978 48.7613 27.6752 48.4703 28.2692 48.0949C28.3481 48.0452 28.4164 47.9803 28.4701 47.9042C28.5239 47.828 28.5622 47.742 28.5827 47.651C28.6032 47.5601 28.6056 47.466 28.5898 47.3741C28.5739 47.2822 28.5401 47.1944 28.4903 47.1156Z" fill="#36932E"/>
<path d="M28.6119 52.0128C25.7618 51.4745 22.6548 53.5872 21.9324 57H33.1258C32.679 54.4328 30.8406 52.4336 28.6119 52.0128Z" fill="#C19774"/>
<path d="M26.7776 52.7405C28.7903 53.1206 30.4811 54.7897 31.1198 57H33.1261C32.6793 54.4327 30.8405 52.4336 28.6122 52.0127C27.3358 51.7718 26.0094 52.0656 24.8672 52.7668C25.4974 52.639 26.1432 52.6206 26.7776 52.7405Z" fill="#956C4C"/>
<path d="M25.8948 55.6843C25.7369 55.6843 25.5779 55.6318 25.4459 55.5243L25.04 55.1925C24.897 55.0725 24.807 54.9011 24.7895 54.7153C24.772 54.5294 24.8284 54.3442 24.9465 54.1997C25.0647 54.0552 25.2349 53.963 25.4205 53.9431C25.6061 53.9233 25.792 53.9773 25.9381 54.0935L26.344 54.4253C26.8479 54.8369 26.5494 55.6843 25.8948 55.6843ZM29.1419 55.4359H28.7239C28.5357 55.4359 28.3552 55.3611 28.2221 55.228C28.089 55.0949 28.0142 54.9144 28.0142 54.7262C28.0142 54.538 28.089 54.3575 28.2221 54.2244C28.3552 54.0913 28.5357 54.0165 28.7239 54.0165H29.1419C29.3301 54.0165 29.5106 54.0913 29.6437 54.2244C29.7768 54.3575 29.8516 54.538 29.8516 54.7262C29.8516 54.9144 29.7768 55.0949 29.6437 55.228C29.5106 55.3611 29.3301 55.4359 29.1419 55.4359Z" fill="white"/>
</g>
<defs>
<clipPath id="clip0_594_2568">
<rect width="44" height="44" fill="white" transform="translate(17 13)"/>
</clipPath>
</defs>
</svg>
