<svg width="297" height="125" viewBox="0 0 297 125" fill="none" xmlns="http://www.w3.org/2000/svg">
<g clip-path="url(#clip0_586_2394)">
<path d="M42.5287 57.3646L44.0259 57.3611C50.8006 44.4311 52.3186 32.0046 48.3319 18.585C52.9848 12.6504 59.4628 7.82013 67.4901 5.2817C60.3285 22.3145 54.4542 48.9592 45.7104 57.3906C46.2881 57.3958 46.8606 57.4027 47.4262 57.4097C54.1488 49.9072 59.2581 31.7945 59.6623 31.2615C63.6612 28.5512 68.4147 26.5545 73.9542 25.8062C68.5483 43.2991 59.1679 54.8626 50.5334 57.46C62.2091 57.6753 70.219 58.1997 70.6007 58.8143C74.0826 64.4224 65.1271 112.137 60.5054 121.799C58.4669 126.062 17.1664 126.072 15.4524 121.799C11.6773 112.392 3.62058 78.6147 5.35719 58.8143C5.42485 58.0173 15.763 57.5399 29.4789 57.3975C19.2865 53.1124 6.61673 39.4653 0 27.7211C10.8794 28.3653 16.9983 28.9001 21.757 32.4976C25.147 42.4134 29.4703 52.1035 34.5274 57.361C35.6447 57.3557 36.7776 57.354 37.9243 57.354C31.5018 50.7631 26.9842 37.821 38.8924 21.0765C44.0155 34.8816 50.3148 45.1951 42.5287 57.3646ZM30.0532 59.6617V58.172C-0.447576 58.5522 0.482353 59.5263 30.0532 59.6617ZM49.8065 58.2067V59.6443C60.5124 59.5714 69.0428 59.396 69.0428 59.113C69.0428 58.5696 58.1079 58.3178 49.8065 58.2067ZM47.4227 45.8063C52.1347 30.4333 47.7749 16.3608 38.8924 0C30.1972 9.23 29.0036 22.5958 31.0195 34.682C32.5635 28.2508 35.5198 23.6566 39.2445 18.4236C42.7299 27.8185 47.5581 37.4878 47.4227 45.8063ZM30.4019 38.1337C28.9064 31.2112 28.3894 23.7834 29.5726 16.8158C25.7732 13.0359 21.1862 9.58421 15.9365 6.64644C19.9267 24.8582 27.1125 48.2838 35.7852 56.8559C31.3907 51.5603 29.6142 44.8634 30.4019 38.1337ZM8.8772 63.0561C8.51114 76.8178 13.3601 105.616 18.5561 119.424C25.4956 121.919 50.6495 121.923 57.4832 119.358C61.7753 109.015 67.948 74.2238 67.6322 63.0544C54.6241 63.7072 21.8922 63.7055 8.8772 63.0561Z" fill="#086972"/>
<path d="M109.537 76.3991C98.2604 76.3991 89.9282 68.7247 89.9282 56.6682C89.9282 44.6117 98.2599 36.9645 109.537 36.9645C118.081 36.9645 124.927 41.3462 127.66 48.6222L120.231 51.3308C118.532 46.8695 114.473 44.2937 109.537 44.2937C102.931 44.2937 97.8625 48.9142 97.8625 56.6685C97.8625 64.4227 102.931 69.0698 109.537 69.0698C114.473 69.0698 118.532 66.4673 120.231 62.0061L127.66 64.7148C124.927 71.9909 118.081 76.3991 109.537 76.3991ZM140.503 52.8971C141.883 50.4806 145.465 48.2499 149.418 48.2499V55.0745C143.634 55.0745 140.874 56.7741 140.874 62.5631V75.8673H133.179V48.5687H140.503L140.503 52.8971ZM166.613 76.3991C157.936 76.3991 151.674 71.1147 151.674 62.1924C151.674 53.323 157.883 48.0386 166.613 48.0386C175.395 48.0386 181.578 53.3231 181.578 62.1924C181.578 71.1149 175.369 76.3991 166.613 76.3991ZM166.533 70.318C170.964 70.318 173.989 67.0783 173.989 62.1921C173.989 57.3058 170.964 54.0661 166.533 54.0661C162.261 54.0661 159.262 57.3058 159.262 62.1921C159.262 67.0783 162.261 70.318 166.533 70.318ZM203.256 48.0378C210.447 48.0378 216.391 53.3223 216.391 62.2717C216.391 71.2212 210.447 76.5057 203.256 76.5057C199.701 76.5057 196.517 75.1248 194.898 72.6286V89.1453H187.256V48.5686H194.5L194.712 52.2332C196.225 49.5245 199.542 48.0378 203.256 48.0378ZM201.531 70.1587C205.538 70.1587 208.748 67.2376 208.748 62.2717C208.748 57.3058 205.538 54.3848 201.531 54.3848C197.445 54.3848 194.261 57.4918 194.261 62.2717C194.261 67.0516 197.445 70.1587 201.531 70.1587ZM231.753 76.3991C225.624 76.3991 220.874 73.9827 219.892 68.8044L226.287 66.9987C227.11 69.9197 229.179 71.0616 231.753 71.0616C233.637 71.0616 235.68 70.4774 235.627 68.3265C235.6 65.4851 231.302 65.2461 226.977 63.7059C223.713 62.564 220.582 60.8114 220.582 56.2174C220.582 50.6142 225.226 48.0384 231.275 48.0384C236.582 48.0384 241.013 50.0566 242.075 55.2614L236.158 56.5892C235.335 54.0399 233.531 53.1369 231.302 53.1369C229.285 53.1369 227.561 53.8539 227.561 55.5534C227.561 57.7043 230.718 58.1292 234.141 59.0586C238.36 60.2005 242.977 62.0328 242.977 67.875C242.977 74.1421 237.644 76.3991 231.753 76.3991ZM275.136 75.868L272.35 67.9546H256.244L253.458 75.868H245.312L259.429 37.4952H269.167L283.283 75.868H275.138H275.136ZM258.579 61.2887H270.016L264.311 45.0099L258.579 61.2887ZM289.04 75.868V37.4952H297V75.868H289.04Z" fill="#086972"/>
</g>
<path d="M85.08 99.66L82.32 104.976V108H80.952V104.976L78.18 99.66H79.704L81.636 103.752L83.568 99.66H85.08ZM89.0516 108.108C88.4276 108.108 87.8636 107.968 87.3596 107.688C86.8556 107.4 86.4596 107 86.1716 106.488C85.8836 105.968 85.7396 105.368 85.7396 104.688C85.7396 104.016 85.8876 103.42 86.1836 102.9C86.4796 102.38 86.8836 101.98 87.3956 101.7C87.9076 101.42 88.4796 101.28 89.1116 101.28C89.7436 101.28 90.3156 101.42 90.8276 101.7C91.3396 101.98 91.7436 102.38 92.0396 102.9C92.3356 103.42 92.4836 104.016 92.4836 104.688C92.4836 105.36 92.3316 105.956 92.0276 106.476C91.7236 106.996 91.3076 107.4 90.7796 107.688C90.2596 107.968 89.6836 108.108 89.0516 108.108ZM89.0516 106.92C89.4036 106.92 89.7316 106.836 90.0356 106.668C90.3476 106.5 90.5996 106.248 90.7916 105.912C90.9836 105.576 91.0796 105.168 91.0796 104.688C91.0796 104.208 90.9876 103.804 90.8036 103.476C90.6196 103.14 90.3756 102.888 90.0716 102.72C89.7676 102.552 89.4396 102.468 89.0876 102.468C88.7356 102.468 88.4076 102.552 88.1036 102.72C87.8076 102.888 87.5716 103.14 87.3956 103.476C87.2196 103.804 87.1316 104.208 87.1316 104.688C87.1316 105.4 87.3116 105.952 87.6716 106.344C88.0396 106.728 88.4996 106.92 89.0516 106.92ZM99.842 101.388V108H98.474V107.22C98.258 107.492 97.974 107.708 97.622 107.868C97.278 108.02 96.91 108.096 96.518 108.096C95.998 108.096 95.53 107.988 95.114 107.772C94.706 107.556 94.382 107.236 94.142 106.812C93.91 106.388 93.794 105.876 93.794 105.276V101.388H95.15V105.072C95.15 105.664 95.298 106.12 95.594 106.44C95.89 106.752 96.294 106.908 96.806 106.908C97.318 106.908 97.722 106.752 98.018 106.44C98.322 106.12 98.474 105.664 98.474 105.072V101.388H99.842ZM103.033 102.348C103.233 102.012 103.497 101.752 103.825 101.568C104.161 101.376 104.557 101.28 105.013 101.28V102.696H104.665C104.129 102.696 103.721 102.832 103.441 103.104C103.169 103.376 103.033 103.848 103.033 104.52V108H101.665V101.388H103.033V102.348ZM114.452 106.296H110.96L110.36 108H108.932L111.92 99.648H113.504L116.492 108H115.052L114.452 106.296ZM114.068 105.18L112.712 101.304L111.344 105.18H114.068ZM119.177 99.66V108H117.809V99.66H119.177ZM126.067 103.08V104.232H121.135V103.08H126.067ZM133.86 102.144C133.86 102.568 133.76 102.968 133.56 103.344C133.36 103.72 133.04 104.028 132.6 104.268C132.16 104.5 131.596 104.616 130.908 104.616H129.396V108H128.028V99.66H130.908C131.548 99.66 132.088 99.772 132.528 99.996C132.976 100.212 133.308 100.508 133.524 100.884C133.748 101.26 133.86 101.68 133.86 102.144ZM130.908 103.5C131.428 103.5 131.816 103.384 132.072 103.152C132.328 102.912 132.456 102.576 132.456 102.144C132.456 101.232 131.94 100.776 130.908 100.776H129.396V103.5H130.908ZM138.051 108.108C137.427 108.108 136.863 107.968 136.359 107.688C135.855 107.4 135.459 107 135.171 106.488C134.883 105.968 134.739 105.368 134.739 104.688C134.739 104.016 134.887 103.42 135.183 102.9C135.479 102.38 135.883 101.98 136.395 101.7C136.907 101.42 137.479 101.28 138.111 101.28C138.743 101.28 139.315 101.42 139.827 101.7C140.339 101.98 140.743 102.38 141.039 102.9C141.335 103.42 141.483 104.016 141.483 104.688C141.483 105.36 141.331 105.956 141.027 106.476C140.723 106.996 140.307 107.4 139.779 107.688C139.259 107.968 138.683 108.108 138.051 108.108ZM138.051 106.92C138.403 106.92 138.731 106.836 139.035 106.668C139.347 106.5 139.599 106.248 139.791 105.912C139.983 105.576 140.079 105.168 140.079 104.688C140.079 104.208 139.987 103.804 139.803 103.476C139.619 103.14 139.375 102.888 139.071 102.72C138.767 102.552 138.439 102.468 138.087 102.468C137.735 102.468 137.407 102.552 137.103 102.72C136.807 102.888 136.571 103.14 136.395 103.476C136.219 103.804 136.131 104.208 136.131 104.688C136.131 105.4 136.311 105.952 136.671 106.344C137.039 106.728 137.499 106.92 138.051 106.92ZM151.733 101.388L149.681 108H148.241L146.909 103.116L145.577 108H144.137L142.073 101.388H143.465L144.845 106.704L146.249 101.388H147.677L149.021 106.68L150.389 101.388H151.733ZM158.834 104.532C158.834 104.78 158.818 105.004 158.786 105.204H153.734C153.774 105.732 153.97 106.156 154.322 106.476C154.674 106.796 155.106 106.956 155.618 106.956C156.354 106.956 156.874 106.648 157.178 106.032H158.654C158.454 106.64 158.09 107.14 157.562 107.532C157.042 107.916 156.394 108.108 155.618 108.108C154.986 108.108 154.418 107.968 153.914 107.688C153.418 107.4 153.026 107 152.738 106.488C152.458 105.968 152.318 105.368 152.318 104.688C152.318 104.008 152.454 103.412 152.726 102.9C153.006 102.38 153.394 101.98 153.89 101.7C154.394 101.42 154.97 101.28 155.618 101.28C156.242 101.28 156.798 101.416 157.286 101.688C157.774 101.96 158.154 102.344 158.426 102.84C158.698 103.328 158.834 103.892 158.834 104.532ZM157.406 104.1C157.398 103.596 157.218 103.192 156.866 102.888C156.514 102.584 156.078 102.432 155.558 102.432C155.086 102.432 154.682 102.584 154.346 102.888C154.01 103.184 153.81 103.588 153.746 104.1H157.406ZM161.566 102.348C161.766 102.012 162.03 101.752 162.358 101.568C162.694 101.376 163.09 101.28 163.546 101.28V102.696H163.198C162.662 102.696 162.254 102.832 161.974 103.104C161.702 103.376 161.566 103.848 161.566 104.52V108H160.198V101.388H161.566V102.348ZM170.882 104.532C170.882 104.78 170.866 105.004 170.834 105.204H165.782C165.822 105.732 166.018 106.156 166.37 106.476C166.722 106.796 167.154 106.956 167.666 106.956C168.402 106.956 168.922 106.648 169.226 106.032H170.702C170.502 106.64 170.138 107.14 169.61 107.532C169.09 107.916 168.442 108.108 167.666 108.108C167.034 108.108 166.466 107.968 165.962 107.688C165.466 107.4 165.074 107 164.786 106.488C164.506 105.968 164.366 105.368 164.366 104.688C164.366 104.008 164.502 103.412 164.774 102.9C165.054 102.38 165.442 101.98 165.938 101.7C166.442 101.42 167.018 101.28 167.666 101.28C168.29 101.28 168.846 101.416 169.334 101.688C169.822 101.96 170.202 102.344 170.474 102.84C170.746 103.328 170.882 103.892 170.882 104.532ZM169.454 104.1C169.446 103.596 169.266 103.192 168.914 102.888C168.562 102.584 168.126 102.432 167.606 102.432C167.134 102.432 166.73 102.584 166.394 102.888C166.058 103.184 165.858 103.588 165.794 104.1H169.454ZM171.79 104.664C171.79 104 171.926 103.412 172.198 102.9C172.478 102.388 172.854 101.992 173.326 101.712C173.806 101.424 174.338 101.28 174.922 101.28C175.354 101.28 175.778 101.376 176.194 101.568C176.618 101.752 176.954 102 177.202 102.312V99.12H178.582V108H177.202V107.004C176.978 107.324 176.666 107.588 176.266 107.796C175.874 108.004 175.422 108.108 174.91 108.108C174.334 108.108 173.806 107.964 173.326 107.676C172.854 107.38 172.478 106.972 172.198 106.452C171.926 105.924 171.79 105.328 171.79 104.664ZM177.202 104.688C177.202 104.232 177.106 103.836 176.914 103.5C176.73 103.164 176.486 102.908 176.182 102.732C175.878 102.556 175.55 102.468 175.198 102.468C174.846 102.468 174.518 102.556 174.214 102.732C173.91 102.9 173.662 103.152 173.47 103.488C173.286 103.816 173.194 104.208 173.194 104.664C173.194 105.12 173.286 105.52 173.47 105.864C173.662 106.208 173.91 106.472 174.214 106.656C174.526 106.832 174.854 106.92 175.198 106.92C175.55 106.92 175.878 106.832 176.182 106.656C176.486 106.48 176.73 106.224 176.914 105.888C177.106 105.544 177.202 105.144 177.202 104.688ZM188.44 99.66V100.776H184.9V103.236H187.66V104.352H184.9V108H183.532V99.66H188.44ZM189.27 104.664C189.27 104 189.406 103.412 189.678 102.9C189.958 102.388 190.334 101.992 190.806 101.712C191.286 101.424 191.814 101.28 192.39 101.28C192.91 101.28 193.362 101.384 193.746 101.592C194.138 101.792 194.45 102.044 194.682 102.348V101.388H196.062V108H194.682V107.016C194.45 107.328 194.134 107.588 193.734 107.796C193.334 108.004 192.878 108.108 192.366 108.108C191.798 108.108 191.278 107.964 190.806 107.676C190.334 107.38 189.958 106.972 189.678 106.452C189.406 105.924 189.27 105.328 189.27 104.664ZM194.682 104.688C194.682 104.232 194.586 103.836 194.394 103.5C194.21 103.164 193.966 102.908 193.662 102.732C193.358 102.556 193.03 102.468 192.678 102.468C192.326 102.468 191.998 102.556 191.694 102.732C191.39 102.9 191.142 103.152 190.95 103.488C190.766 103.816 190.674 104.208 190.674 104.664C190.674 105.12 190.766 105.52 190.95 105.864C191.142 106.208 191.39 106.472 191.694 106.656C192.006 106.832 192.334 106.92 192.678 106.92C193.03 106.92 193.358 106.832 193.662 106.656C193.966 106.48 194.21 106.224 194.394 105.888C194.586 105.544 194.682 105.144 194.682 104.688ZM199.244 102.348C199.444 102.012 199.708 101.752 200.036 101.568C200.372 101.376 200.768 101.28 201.224 101.28V102.696H200.876C200.34 102.696 199.932 102.832 199.652 103.104C199.38 103.376 199.244 103.848 199.244 104.52V108H197.876V101.388H199.244V102.348ZM210.504 101.28C211.024 101.28 211.488 101.388 211.896 101.604C212.312 101.82 212.636 102.14 212.868 102.564C213.108 102.988 213.228 103.5 213.228 104.1V108H211.872V104.304C211.872 103.712 211.724 103.26 211.428 102.948C211.132 102.628 210.728 102.468 210.216 102.468C209.704 102.468 209.296 102.628 208.992 102.948C208.696 103.26 208.548 103.712 208.548 104.304V108H207.192V104.304C207.192 103.712 207.044 103.26 206.748 102.948C206.452 102.628 206.048 102.468 205.536 102.468C205.024 102.468 204.616 102.628 204.312 102.948C204.016 103.26 203.868 103.712 203.868 104.304V108H202.5V101.388H203.868V102.144C204.092 101.872 204.376 101.66 204.72 101.508C205.064 101.356 205.432 101.28 205.824 101.28C206.352 101.28 206.824 101.392 207.24 101.616C207.656 101.84 207.976 102.164 208.2 102.588C208.4 102.188 208.712 101.872 209.136 101.64C209.56 101.4 210.016 101.28 210.504 101.28ZM215.683 100.512C215.435 100.512 215.227 100.428 215.059 100.26C214.891 100.092 214.807 99.884 214.807 99.636C214.807 99.388 214.891 99.18 215.059 99.012C215.227 98.844 215.435 98.76 215.683 98.76C215.923 98.76 216.127 98.844 216.295 99.012C216.463 99.18 216.547 99.388 216.547 99.636C216.547 99.884 216.463 100.092 216.295 100.26C216.127 100.428 215.923 100.512 215.683 100.512ZM216.355 101.388V108H214.987V101.388H216.355ZM221.505 101.28C222.025 101.28 222.489 101.388 222.897 101.604C223.313 101.82 223.637 102.14 223.869 102.564C224.101 102.988 224.217 103.5 224.217 104.1V108H222.861V104.304C222.861 103.712 222.713 103.26 222.417 102.948C222.121 102.628 221.717 102.468 221.205 102.468C220.693 102.468 220.285 102.628 219.981 102.948C219.685 103.26 219.537 103.712 219.537 104.304V108H218.169V101.388H219.537V102.144C219.761 101.872 220.045 101.66 220.389 101.508C220.741 101.356 221.113 101.28 221.505 101.28ZM228.644 101.28C229.156 101.28 229.608 101.384 230 101.592C230.4 101.792 230.712 102.044 230.936 102.348V101.388H232.316V108.108C232.316 108.716 232.188 109.256 231.932 109.728C231.676 110.208 231.304 110.584 230.816 110.856C230.336 111.128 229.76 111.264 229.088 111.264C228.192 111.264 227.448 111.052 226.856 110.628C226.264 110.212 225.928 109.644 225.848 108.924H227.204C227.308 109.268 227.528 109.544 227.864 109.752C228.208 109.968 228.616 110.076 229.088 110.076C229.64 110.076 230.084 109.908 230.42 109.572C230.764 109.236 230.936 108.748 230.936 108.108V107.004C230.704 107.316 230.388 107.58 229.988 107.796C229.596 108.004 229.148 108.108 228.644 108.108C228.068 108.108 227.54 107.964 227.06 107.676C226.588 107.38 226.212 106.972 225.932 106.452C225.66 105.924 225.524 105.328 225.524 104.664C225.524 104 225.66 103.412 225.932 102.9C226.212 102.388 226.588 101.992 227.06 101.712C227.54 101.424 228.068 101.28 228.644 101.28ZM230.936 104.688C230.936 104.232 230.84 103.836 230.648 103.5C230.464 103.164 230.22 102.908 229.916 102.732C229.612 102.556 229.284 102.468 228.932 102.468C228.58 102.468 228.252 102.556 227.948 102.732C227.644 102.9 227.396 103.152 227.204 103.488C227.02 103.816 226.928 104.208 226.928 104.664C226.928 105.12 227.02 105.52 227.204 105.864C227.396 106.208 227.644 106.472 227.948 106.656C228.26 106.832 228.588 106.92 228.932 106.92C229.284 106.92 229.612 106.832 229.916 106.656C230.22 106.48 230.464 106.224 230.648 105.888C230.84 105.544 230.936 105.144 230.936 104.688ZM242.294 106.296H238.802L238.202 108H236.774L239.762 99.648H241.346L244.334 108H242.894L242.294 106.296ZM241.91 105.18L240.554 101.304L239.186 105.18H241.91ZM248.051 108.108C247.531 108.108 247.063 108.016 246.647 107.832C246.239 107.64 245.915 107.384 245.675 107.064C245.435 106.736 245.307 106.372 245.291 105.972H246.707C246.731 106.252 246.863 106.488 247.103 106.68C247.351 106.864 247.659 106.956 248.027 106.956C248.411 106.956 248.707 106.884 248.915 106.74C249.131 106.588 249.239 106.396 249.239 106.164C249.239 105.916 249.119 105.732 248.879 105.612C248.647 105.492 248.275 105.36 247.763 105.216C247.267 105.08 246.863 104.948 246.551 104.82C246.239 104.692 245.967 104.496 245.735 104.232C245.511 103.968 245.399 103.62 245.399 103.188C245.399 102.836 245.503 102.516 245.711 102.228C245.919 101.932 246.215 101.7 246.599 101.532C246.991 101.364 247.439 101.28 247.943 101.28C248.695 101.28 249.299 101.472 249.755 101.856C250.219 102.232 250.467 102.748 250.499 103.404H249.131C249.107 103.108 248.987 102.872 248.771 102.696C248.555 102.52 248.263 102.432 247.895 102.432C247.535 102.432 247.259 102.5 247.067 102.636C246.875 102.772 246.779 102.952 246.779 103.176C246.779 103.352 246.843 103.5 246.971 103.62C247.099 103.74 247.255 103.836 247.439 103.908C247.623 103.972 247.895 104.056 248.255 104.16C248.735 104.288 249.127 104.42 249.431 104.556C249.743 104.684 250.011 104.876 250.235 105.132C250.459 105.388 250.575 105.728 250.583 106.152C250.583 106.528 250.479 106.864 250.271 107.16C250.063 107.456 249.767 107.688 249.383 107.856C249.007 108.024 248.563 108.108 248.051 108.108ZM254.479 108.108C253.959 108.108 253.491 108.016 253.075 107.832C252.667 107.64 252.343 107.384 252.103 107.064C251.863 106.736 251.735 106.372 251.719 105.972H253.135C253.159 106.252 253.291 106.488 253.531 106.68C253.779 106.864 254.087 106.956 254.455 106.956C254.839 106.956 255.135 106.884 255.343 106.74C255.559 106.588 255.667 106.396 255.667 106.164C255.667 105.916 255.547 105.732 255.307 105.612C255.075 105.492 254.703 105.36 254.191 105.216C253.695 105.08 253.291 104.948 252.979 104.82C252.667 104.692 252.395 104.496 252.163 104.232C251.939 103.968 251.827 103.62 251.827 103.188C251.827 102.836 251.931 102.516 252.139 102.228C252.347 101.932 252.643 101.7 253.027 101.532C253.419 101.364 253.867 101.28 254.371 101.28C255.123 101.28 255.727 101.472 256.183 101.856C256.647 102.232 256.895 102.748 256.927 103.404H255.559C255.535 103.108 255.415 102.872 255.199 102.696C254.983 102.52 254.691 102.432 254.323 102.432C253.963 102.432 253.687 102.5 253.495 102.636C253.303 102.772 253.207 102.952 253.207 103.176C253.207 103.352 253.271 103.5 253.399 103.62C253.527 103.74 253.683 103.836 253.867 103.908C254.051 103.972 254.323 104.056 254.683 104.16C255.163 104.288 255.555 104.42 255.859 104.556C256.171 104.684 256.439 104.876 256.663 105.132C256.887 105.388 257.003 105.728 257.011 106.152C257.011 106.528 256.907 106.864 256.699 107.16C256.491 107.456 256.195 107.688 255.811 107.856C255.435 108.024 254.991 108.108 254.479 108.108ZM259.203 100.512C258.955 100.512 258.747 100.428 258.579 100.26C258.411 100.092 258.327 99.884 258.327 99.636C258.327 99.388 258.411 99.18 258.579 99.012C258.747 98.844 258.955 98.76 259.203 98.76C259.443 98.76 259.647 98.844 259.815 99.012C259.983 99.18 260.067 99.388 260.067 99.636C260.067 99.884 259.983 100.092 259.815 100.26C259.647 100.428 259.443 100.512 259.203 100.512ZM259.875 101.388V108H258.507V101.388H259.875ZM264.089 108.108C263.569 108.108 263.101 108.016 262.685 107.832C262.277 107.64 261.953 107.384 261.713 107.064C261.473 106.736 261.345 106.372 261.329 105.972H262.745C262.769 106.252 262.901 106.488 263.141 106.68C263.389 106.864 263.697 106.956 264.065 106.956C264.449 106.956 264.745 106.884 264.953 106.74C265.169 106.588 265.277 106.396 265.277 106.164C265.277 105.916 265.157 105.732 264.917 105.612C264.685 105.492 264.313 105.36 263.801 105.216C263.305 105.08 262.901 104.948 262.589 104.82C262.277 104.692 262.005 104.496 261.773 104.232C261.549 103.968 261.437 103.62 261.437 103.188C261.437 102.836 261.541 102.516 261.749 102.228C261.957 101.932 262.253 101.7 262.637 101.532C263.029 101.364 263.477 101.28 263.981 101.28C264.733 101.28 265.337 101.472 265.793 101.856C266.257 102.232 266.505 102.748 266.537 103.404H265.169C265.145 103.108 265.025 102.872 264.809 102.696C264.593 102.52 264.301 102.432 263.933 102.432C263.573 102.432 263.297 102.5 263.105 102.636C262.913 102.772 262.817 102.952 262.817 103.176C262.817 103.352 262.881 103.5 263.009 103.62C263.137 103.74 263.293 103.836 263.477 103.908C263.661 103.972 263.933 104.056 264.293 104.16C264.773 104.288 265.165 104.42 265.469 104.556C265.781 104.684 266.049 104.876 266.273 105.132C266.497 105.388 266.613 105.728 266.621 106.152C266.621 106.528 266.517 106.864 266.309 107.16C266.101 107.456 265.805 107.688 265.421 107.856C265.045 108.024 264.601 108.108 264.089 108.108ZM269.713 102.504V106.164C269.713 106.412 269.769 106.592 269.881 106.704C270.001 106.808 270.201 106.86 270.481 106.86H271.321V108H270.241C269.625 108 269.153 107.856 268.825 107.568C268.497 107.28 268.333 106.812 268.333 106.164V102.504H267.553V101.388H268.333V99.744H269.713V101.388H271.321V102.504H269.713ZM272.144 104.664C272.144 104 272.28 103.412 272.552 102.9C272.832 102.388 273.208 101.992 273.68 101.712C274.16 101.424 274.688 101.28 275.264 101.28C275.784 101.28 276.236 101.384 276.62 101.592C277.012 101.792 277.324 102.044 277.556 102.348V101.388H278.936V108H277.556V107.016C277.324 107.328 277.008 107.588 276.608 107.796C276.208 108.004 275.752 108.108 275.24 108.108C274.672 108.108 274.152 107.964 273.68 107.676C273.208 107.38 272.832 106.972 272.552 106.452C272.28 105.924 272.144 105.328 272.144 104.664ZM277.556 104.688C277.556 104.232 277.46 103.836 277.268 103.5C277.084 103.164 276.84 102.908 276.536 102.732C276.232 102.556 275.904 102.468 275.552 102.468C275.2 102.468 274.872 102.556 274.568 102.732C274.264 102.9 274.016 103.152 273.824 103.488C273.64 103.816 273.548 104.208 273.548 104.664C273.548 105.12 273.64 105.52 273.824 105.864C274.016 106.208 274.264 106.472 274.568 106.656C274.88 106.832 275.208 106.92 275.552 106.92C275.904 106.92 276.232 106.832 276.536 106.656C276.84 106.48 277.084 106.224 277.268 105.888C277.46 105.544 277.556 105.144 277.556 104.688ZM284.087 101.28C284.607 101.28 285.071 101.388 285.479 101.604C285.895 101.82 286.219 102.14 286.451 102.564C286.683 102.988 286.799 103.5 286.799 104.1V108H285.443V104.304C285.443 103.712 285.295 103.26 284.999 102.948C284.703 102.628 284.299 102.468 283.787 102.468C283.275 102.468 282.867 102.628 282.563 102.948C282.267 103.26 282.119 103.712 282.119 104.304V108H280.751V101.388H282.119V102.144C282.343 101.872 282.627 101.66 282.971 101.508C283.323 101.356 283.695 101.28 284.087 101.28ZM290.158 102.504V106.164C290.158 106.412 290.214 106.592 290.326 106.704C290.446 106.808 290.646 106.86 290.926 106.86H291.766V108H290.686C290.07 108 289.598 107.856 289.27 107.568C288.942 107.28 288.778 106.812 288.778 106.164V102.504H287.998V101.388H288.778V99.744H290.158V101.388H291.766V102.504H290.158Z" fill="#0B95A2"/>
<defs>
<clipPath id="clip0_586_2394">
<rect width="297" height="125" fill="white"/>
</clipPath>
</defs>
</svg>
