<svg width="300" height="300" viewBox="0 0 300 300" fill="none" xmlns="http://www.w3.org/2000/svg">
<g clip-path="url(#clip0_675_8165)">
<path d="M287.993 125.746H119.896L107.889 160.072V194.395H300L287.993 125.746Z" fill="#99BECE"/>
<path d="M287.993 125.746H272.985L284.993 194.395H300L287.993 125.746Z" fill="#6B99B0"/>
<path d="M78.5565 128.623L55.5653 114.123C54.7923 113.636 53.8974 113.378 52.9839 113.378H45.2468V96.1862C45.2468 94.9029 44.737 93.6722 43.8295 92.7648C42.9221 91.8573 41.6914 91.3475 40.4081 91.3475C39.1248 91.3475 37.894 91.8573 36.9866 92.7648C36.0791 93.6722 35.5694 94.9029 35.5694 96.1862V113.378H27.8323C26.9202 113.378 26.0226 113.637 25.2508 114.123L2.25968 128.623C1.56818 129.058 0.998276 129.662 0.603139 130.377C0.208002 131.093 0.000502912 131.896 0 132.714L0 156.564C0 157.86 0.520161 159.104 1.44677 160.014L16.2919 174.61C17.2073 175.51 18.4426 176.009 19.7261 175.998C21.0097 175.987 22.2364 175.467 23.1363 174.552C24.0362 173.636 24.5357 172.401 24.5248 171.117C24.5139 169.834 23.9935 168.607 23.0782 167.707L9.67742 154.536V135.382L29.2306 123.053H51.5855L71.1387 135.382V154.394L56.3661 167.545C51.7282 171.675 58.1177 178.94 62.8016 174.772L79.1952 160.176C79.7051 159.722 80.1131 159.165 80.3925 158.542C80.6719 157.919 80.8162 157.244 80.8161 156.561V132.711C80.8143 131.895 80.6062 131.092 80.2112 130.377C79.8162 129.662 79.247 129.059 78.5565 128.623Z" fill="#9B9FAB"/>
<path d="M174.087 20.7556H149.753L187.776 114.992H220.113L174.087 20.7556Z" fill="#FFD291"/>
<path d="M40.696 8.73145V32.746L162.557 36.6968V4.78064L40.696 8.73145Z" fill="#FFD291"/>
<path d="M30.0049 30.1597H51.167V77.8089H30.0049V30.1597Z" fill="#FFD291"/>
<path d="M151.914 220.072C166.282 220.072 177.929 208.576 177.929 194.395C177.929 180.214 166.282 168.719 151.914 168.719C137.546 168.719 125.898 180.214 125.898 194.395C125.898 208.576 137.546 220.072 151.914 220.072Z" fill="#E3E4E8"/>
<path d="M151.914 203.378C156.948 203.378 161.03 199.356 161.03 194.395C161.03 189.434 156.948 185.412 151.914 185.412C146.879 185.412 142.798 189.434 142.798 194.395C142.798 199.356 146.879 203.378 151.914 203.378Z" fill="#9B9FAB"/>
<path d="M203.944 150.941C218.312 150.941 229.96 139.445 229.96 125.265C229.96 111.084 218.312 99.5879 203.944 99.5879C189.576 99.5879 177.929 111.084 177.929 125.265C177.929 139.445 189.576 150.941 203.944 150.941Z" fill="#9ADCFE"/>
<path d="M203.944 134.248C208.979 134.248 213.06 130.226 213.06 125.265C213.06 120.303 208.979 116.281 203.944 116.281C198.91 116.281 194.828 120.303 194.828 125.265C194.828 130.226 198.91 134.248 203.944 134.248Z" fill="white"/>
<path d="M162.557 41.4944C174.161 41.4944 183.569 32.2094 183.569 20.7557C183.569 9.30201 174.161 0.0169678 162.557 0.0169678C150.952 0.0169678 141.544 9.30201 141.544 20.7557C141.544 32.2094 150.952 41.4944 162.557 41.4944Z" fill="#9ADCFE"/>
<path d="M162.556 28.021C166.61 28.021 169.897 24.7682 169.897 20.7557C169.897 16.7432 166.61 13.4904 162.556 13.4904C158.502 13.4904 155.216 16.7432 155.216 20.7557C155.216 24.7682 158.502 28.021 162.556 28.021Z" fill="white"/>
<path d="M40.6959 41.4774C52.3006 41.4774 61.708 32.1924 61.708 20.7387C61.708 9.28504 52.3006 0 40.6959 0C29.0913 0 19.6838 9.28504 19.6838 20.7387C19.6838 32.1924 29.0913 41.4774 40.6959 41.4774Z" fill="#9ADCFE"/>
<path d="M40.696 28.004C44.75 28.004 48.0364 24.7512 48.0364 20.7387C48.0364 16.7262 44.75 13.4734 40.696 13.4734C36.6421 13.4734 33.3557 16.7262 33.3557 20.7387C33.3557 24.7512 36.6421 28.004 40.696 28.004Z" fill="white"/>
<path d="M255.975 220.072C270.343 220.072 281.99 208.576 281.99 194.395C281.99 180.214 270.343 168.719 255.975 168.719C241.607 168.719 229.96 180.214 229.96 194.395C229.96 208.576 241.607 220.072 255.975 220.072Z" fill="#E3E4E8"/>
<path d="M255.975 203.378C261.01 203.378 265.091 199.356 265.091 194.395C265.091 189.434 261.01 185.412 255.975 185.412C250.94 185.412 246.859 189.434 246.859 194.395C246.859 199.356 250.94 203.378 255.975 203.378Z" fill="#9B9FAB"/>
<path d="M21.813 77.8088H59.5791V96.1838H21.813V77.8088Z" fill="#99BECE"/>
<path d="M47.0735 77.8088H59.5791V96.1838H47.0735V77.8088Z" fill="#6B99B0"/>
<path d="M62.659 226.64C63.6267 224.519 69.709 210.566 63.1549 195.317C55.4444 177.375 37.1493 173.693 35.6275 173.415C35.0275 177.23 32.4751 195.973 44.5549 212.124C50.7436 220.401 58.2485 224.623 62.659 226.64Z" fill="#64C35B"/>
<path d="M63.1548 195.317C55.4468 177.375 37.1492 173.693 35.6274 173.415C35.3653 175.108 35.1861 176.813 35.0903 178.524C41.4823 181.282 47.5742 186.915 52.3355 198C56.6371 208.009 58.1976 217.435 56.6323 223.348C58.5611 224.588 60.5759 225.689 62.6613 226.643C63.6266 224.519 69.7089 210.569 63.1548 195.317Z" fill="#44AC3D"/>
<path d="M70.05 234.496C72.8323 223.815 81.1428 215.913 90.7621 214.645C103.135 213.017 116.008 222.585 118.723 237.331C116.806 238.989 107.388 246.774 93.5226 245.838C80.0589 244.933 71.8404 236.439 70.05 234.496Z" fill="#64C35B"/>
<path d="M93.5251 234.699C83.267 234.007 76.0646 231.706 72.421 228.46C71.4111 230.379 70.6167 232.404 70.0525 234.498C71.8404 236.439 80.0589 244.936 93.5251 245.843C107.39 246.777 116.807 238.994 118.725 237.336C118.294 235.028 117.591 232.779 116.632 230.635C112.773 233.448 104.569 235.442 93.5251 234.699Z" fill="#44AC3D"/>
<path d="M64.5218 252.003C58.1468 240.45 45.1863 235.544 34.8146 239.635C27.1089 242.676 21.6242 250.372 20.3613 259.423C27.5098 262.202 35.2628 263.055 42.8444 261.895C53.9371 260.182 61.3984 254.63 64.5218 252.003Z" fill="#64C35B"/>
<path d="M60.3387 246.264C56.8162 249.075 49.7468 250.609 39.5758 252.179C32.2162 253.316 25.9742 255.583 21.5879 254.4C21.0253 256.033 20.6147 257.714 20.3613 259.423C27.5098 262.202 35.2628 263.054 42.8444 261.895C53.9396 260.182 61.4008 254.627 64.5242 252C63.3757 249.92 61.9694 247.992 60.3387 246.264Z" fill="#44AC3D"/>
<path d="M78.3435 232.606C77.657 231.522 76.5679 230.755 75.3158 230.473C74.0636 230.191 72.7509 230.418 71.666 231.104C70.7379 231.699 69.8744 232.389 69.0894 233.163C68.0683 228.615 66.783 224.131 65.2402 219.733C65.0291 219.134 64.702 218.582 64.2776 218.109C63.8532 217.636 63.3397 217.251 62.7666 216.977C62.1935 216.702 61.572 216.543 60.9374 216.509C60.3029 216.474 59.6678 216.565 59.0685 216.777C58.4691 216.988 57.9172 217.315 57.4442 217.739C56.9713 218.164 56.5866 218.677 56.312 219.25C56.0375 219.823 55.8785 220.445 55.8442 221.079C55.8099 221.714 55.9009 222.349 56.112 222.948C58.7859 230.541 60.621 238.403 61.5846 246.394C60.4646 245.937 59.2138 245.917 58.0797 246.338C56.9457 246.759 56.0112 247.591 55.4612 248.668C54.8812 249.813 54.7796 251.141 55.1789 252.361C55.5782 253.581 56.4455 254.592 57.5902 255.172C60.358 256.575 62.0806 259.655 62.3394 263.632C62.2747 265.777 62.1513 267.92 61.9693 270.058C61.8716 271.33 62.28 272.588 63.1055 273.56C63.931 274.533 65.107 275.14 66.3776 275.249C67.6483 275.359 68.9108 274.962 69.8907 274.146C70.8706 273.33 71.4887 272.16 71.6104 270.89C71.8281 268.357 71.9491 265.836 72.0168 263.325L72.0193 263.274L72.0168 263.257C72.1874 257.148 71.9019 251.036 71.1628 244.969C71.5765 243.827 72.7862 241.844 76.8362 239.284C77.3738 238.945 77.8392 238.503 78.206 237.983C78.5727 237.464 78.8335 236.878 78.9735 236.257C79.1134 235.637 79.1299 234.996 79.0218 234.369C78.9137 233.743 78.6832 233.144 78.3435 232.606Z" fill="#36932E"/>
<path d="M79.1711 265.996C59.7388 262.326 38.555 276.731 33.6292 300H109.948C106.902 282.496 94.367 268.865 79.1711 265.996Z" fill="#C19774"/>
<path d="M66.6652 270.958C80.3878 273.549 91.916 284.93 96.2709 300H109.95C106.904 282.496 94.3668 268.865 79.1733 265.996C70.4709 264.353 61.4273 266.356 53.6394 271.137C57.9362 270.266 62.3394 270.14 66.6652 270.958Z" fill="#956C4C"/>
<path d="M60.6461 291.029C59.5695 291.029 58.4856 290.671 57.5856 289.938L54.8179 287.676C53.8429 286.858 53.2294 285.689 53.1102 284.422C52.9909 283.155 53.3756 281.892 54.1809 280.907C54.9862 279.921 56.1472 279.293 57.4126 279.157C58.6779 279.022 59.9456 279.39 60.9412 280.183L63.709 282.445C67.1445 285.252 65.1098 291.029 60.6461 291.029ZM82.7856 289.335H79.9356C78.6523 289.335 77.4216 288.826 76.5141 287.918C75.6067 287.011 75.0969 285.78 75.0969 284.497C75.0969 283.213 75.6067 281.983 76.5141 281.075C77.4216 280.168 78.6523 279.658 79.9356 279.658H82.7856C84.0689 279.658 85.2997 280.168 86.2071 281.075C87.1145 281.983 87.6243 283.213 87.6243 284.497C87.6243 285.78 87.1145 287.011 86.2071 287.918C85.2997 288.826 84.0689 289.335 82.7856 289.335Z" fill="white"/>
</g>
<defs>
<clipPath id="clip0_675_8165">
<rect width="300" height="300" fill="white"/>
</clipPath>
</defs>
</svg>
