<svg width="300" height="300" viewBox="0 0 300 300" fill="none" xmlns="http://www.w3.org/2000/svg">
<g clip-path="url(#clip0_675_8194)">
<path d="M247.977 78H110.608C109.325 78 108.094 77.4902 107.187 76.5828C106.279 75.6753 105.769 74.4446 105.769 73.1613C105.769 71.878 106.279 70.6472 107.187 69.7398C108.094 68.8324 109.325 68.3226 110.608 68.3226H243.138V22.2024C243.138 20.9191 243.648 19.6884 244.555 18.7809C245.462 17.8735 246.693 17.3637 247.977 17.3637C249.26 17.3637 250.491 17.8735 251.398 18.7809C252.305 19.6884 252.815 20.9191 252.815 22.2024V73.1613C252.815 74.4446 252.305 75.6753 251.398 76.5828C250.491 77.4902 249.26 78 247.977 78ZM247.977 156.305H135.467C134.184 156.305 132.953 155.795 132.045 154.888C131.138 153.98 130.628 152.749 130.628 151.466C130.628 150.183 131.138 148.952 132.045 148.045C132.953 147.137 134.184 146.627 135.467 146.627H247.977C249.26 146.627 250.491 147.137 251.398 148.045C252.305 148.952 252.815 150.183 252.815 151.466C252.815 152.749 252.305 153.98 251.398 154.888C250.491 155.795 249.26 156.305 247.977 156.305ZM247.977 282.748C246.693 282.748 245.462 282.238 244.555 281.33C243.648 280.423 243.138 279.192 243.138 277.909V235.628H110.608C109.325 235.628 108.094 235.118 107.187 234.211C106.279 233.304 105.769 232.073 105.769 230.789C105.769 229.506 106.279 228.275 107.187 227.368C108.094 226.461 109.325 225.951 110.608 225.951H247.977C249.26 225.951 250.491 226.461 251.398 227.368C252.305 228.275 252.815 229.506 252.815 230.789V277.911C252.815 279.194 252.305 280.424 251.397 281.331C250.49 282.238 249.259 282.748 247.977 282.748Z" fill="#C7CAD1"/>
<path d="M110.608 211.964C109.325 211.964 108.094 211.455 107.187 210.547C106.279 209.64 105.769 208.409 105.769 207.126V100.094C105.769 98.8102 106.279 97.5795 107.187 96.672C108.094 95.7646 109.325 95.2548 110.608 95.2548C111.891 95.2548 113.122 95.7646 114.029 96.672C114.937 97.5795 115.447 98.8102 115.447 100.094V207.126C115.447 208.409 114.937 209.64 114.029 210.547C113.122 211.455 111.891 211.964 110.608 211.964Z" fill="#44AC3D"/>
<path d="M160.326 120.682C160.326 120.682 132.902 134.115 121.977 143.219C111.051 152.323 107.356 167.932 113.729 173.24C120.102 178.551 131.823 175.517 142.698 166.369C156.058 155.131 160.326 120.682 160.326 120.682Z" fill="#64C35B"/>
<path d="M150.474 125.729C147.98 136.754 143.228 152.064 135.138 158.869C126.566 166.081 117.477 169.471 110.886 167.99C111.307 170.16 112.232 171.992 113.729 173.24C120.102 178.551 131.823 175.517 142.698 166.369C156.058 155.129 160.326 120.682 160.326 120.682C160.326 120.682 156.179 122.715 150.474 125.729Z" fill="#44AC3D"/>
<path d="M60.2057 120.682C60.2057 120.682 87.6291 134.115 98.5549 143.219C109.481 152.323 113.175 167.932 106.802 173.24C100.43 178.551 88.7081 175.517 77.8331 166.369C64.4734 155.131 60.2057 120.682 60.2057 120.682Z" fill="#64C35B"/>
<path d="M70.0573 125.729C72.5517 136.754 77.3033 152.064 85.3936 158.869C93.9654 166.081 103.055 169.471 109.645 167.99C109.224 170.16 108.3 171.992 106.802 173.24C100.43 178.551 88.7081 175.517 77.8331 166.369C64.4734 155.129 60.2057 120.682 60.2057 120.682C60.2057 120.682 64.3525 122.715 70.0573 125.729Z" fill="#44AC3D"/>
<path d="M108.99 36.7839C108.99 36.7839 84.4379 65.4798 84.7331 79.9427C85.0283 94.4056 98.1412 109.406 108.992 109.539C119.843 109.674 136.865 95.5718 136.478 81.1089C136.002 63.3387 108.99 36.7839 108.99 36.7839Z" fill="#64C35B"/>
<path d="M108.99 36.7839C108.99 36.7839 105.934 40.3573 101.998 45.6073C109.996 54.9218 121.055 69.7936 121.36 81.1089C121.66 92.2911 111.554 103.229 101.937 107.565C104.296 108.781 106.696 109.51 108.994 109.539C119.845 109.674 136.868 95.5718 136.481 81.1089C136.002 63.3387 108.99 36.7839 108.99 36.7839Z" fill="#44AC3D"/>
<path d="M121.534 193.002H99.6822C60.6629 193.002 29.0322 224.632 29.0322 263.652V266.006H192.184V263.652C192.184 224.632 160.553 193.002 121.534 193.002Z" fill="#C19774"/>
<path d="M118.59 193.002H102.624C101.92 193.002 101.226 193.035 100.527 193.055C140.199 194.16 172.021 226.386 172.021 266.006H192.181C192.184 221.775 159.235 193.002 118.59 193.002Z" fill="#956C4C"/>
<path d="M67.0525 245.879H60.9992C59.7159 245.879 58.4852 245.369 57.5777 244.462C56.6703 243.554 56.1605 242.324 56.1605 241.04C56.1605 239.757 56.6703 238.526 57.5777 237.619C58.4852 236.711 59.7159 236.202 60.9992 236.202H67.0525C68.3358 236.202 69.5665 236.711 70.4739 237.619C71.3814 238.526 71.8912 239.757 71.8912 241.04C71.8912 242.324 71.3814 243.554 70.4739 244.462C69.5665 245.369 68.3358 245.879 67.0525 245.879ZM164.206 245.879H158.153C156.87 245.879 155.639 245.369 154.732 244.462C153.824 243.554 153.315 242.324 153.315 241.04C153.315 239.757 153.824 238.526 154.732 237.619C155.639 236.711 156.87 236.202 158.153 236.202H164.206C165.49 236.202 166.721 236.711 167.628 237.619C168.535 238.526 169.045 239.757 169.045 241.04C169.045 242.324 168.535 243.554 167.628 244.462C166.721 245.369 165.49 245.879 164.206 245.879ZM128.84 235.628H122.785C121.501 235.628 120.271 235.118 119.363 234.211C118.456 233.304 117.946 232.073 117.946 230.789C117.946 229.506 118.456 228.275 119.363 227.368C120.271 226.461 121.501 225.951 122.785 225.951H128.84C130.124 225.951 131.354 226.461 132.262 227.368C133.169 228.275 133.679 229.506 133.679 230.789C133.679 232.073 133.169 233.304 132.262 234.211C131.354 235.118 130.124 235.628 128.84 235.628ZM97.7323 220.691H91.6767C90.3933 220.691 89.1626 220.181 88.2552 219.274C87.3477 218.366 86.8379 217.136 86.8379 215.852C86.8379 214.569 87.3477 213.338 88.2552 212.431C89.1626 211.523 90.3933 211.014 91.6767 211.014H97.7323C99.0156 211.014 100.246 211.523 101.154 212.431C102.061 213.338 102.571 214.569 102.571 215.852C102.571 217.136 102.061 218.366 101.154 219.274C100.246 220.181 99.0156 220.691 97.7323 220.691ZM102.847 253.437H96.7912C95.5079 253.437 94.2771 252.927 93.3697 252.02C92.4622 251.112 91.9525 249.882 91.9525 248.598C91.9525 247.315 92.4622 246.084 93.3697 245.177C94.2771 244.269 95.5079 243.76 96.7912 243.76H102.847C104.13 243.76 105.361 244.269 106.268 245.177C107.176 246.084 107.686 247.315 107.686 248.598C107.686 249.882 107.176 251.112 106.268 252.02C105.361 252.927 104.13 253.437 102.847 253.437Z" fill="white"/>
<path d="M247.977 45.0387C260.674 45.0387 270.968 34.9565 270.968 22.5194C270.968 10.0823 260.674 0 247.977 0C235.279 0 224.985 10.0823 224.985 22.5194C224.985 34.9565 235.279 45.0387 247.977 45.0387Z" fill="#99BECE"/>
<path d="M247.977 30.5153C252.485 30.5153 256.14 26.9354 256.14 22.5193C256.14 18.1033 252.485 14.5234 247.977 14.5234C243.468 14.5234 239.814 18.1033 239.814 22.5193C239.814 26.9354 243.468 30.5153 247.977 30.5153Z" fill="#6B99B0"/>
<path d="M247.977 173.913C260.674 173.913 270.968 163.831 270.968 151.394C270.968 138.956 260.674 128.874 247.977 128.874C235.279 128.874 224.985 138.956 224.985 151.394C224.985 163.831 235.279 173.913 247.977 173.913Z" fill="#99BECE"/>
<path d="M247.977 159.39C252.485 159.39 256.14 155.81 256.14 151.394C256.14 146.978 252.485 143.398 247.977 143.398C243.468 143.398 239.814 146.978 239.814 151.394C239.814 155.81 243.468 159.39 247.977 159.39Z" fill="#6B99B0"/>
<path d="M247.977 300C260.674 300 270.968 289.918 270.968 277.481C270.968 265.044 260.674 254.961 247.977 254.961C235.279 254.961 224.985 265.044 224.985 277.481C224.985 289.918 235.279 300 247.977 300Z" fill="#99BECE"/>
<path d="M247.977 285.477C252.485 285.477 256.14 281.897 256.14 277.481C256.14 273.065 252.485 269.485 247.977 269.485C243.468 269.485 239.814 273.065 239.814 277.481C239.814 281.897 243.468 285.477 247.977 285.477Z" fill="#6B99B0"/>
</g>
<defs>
<clipPath id="clip0_675_8194">
<rect width="300" height="300" fill="white"/>
</clipPath>
</defs>
</svg>
