<svg width="300" height="300" viewBox="0 0 300 300" fill="none" xmlns="http://www.w3.org/2000/svg">
<path d="M72.6581 300H4.83871C3.5554 300 2.32466 299.49 1.41723 298.583C0.509791 297.675 0 296.445 0 295.161V226.674C0 225.391 0.509791 224.16 1.41723 223.253C2.32466 222.345 3.5554 221.835 4.83871 221.835C6.12202 221.835 7.35276 222.345 8.26019 223.253C9.16763 224.16 9.67742 225.391 9.67742 226.674V290.323H72.6581C73.9414 290.323 75.1721 290.832 76.0795 291.74C76.987 292.647 77.4968 293.878 77.4968 295.161C77.4968 296.445 76.987 297.675 76.0795 298.583C75.1721 299.49 73.9414 300 72.6581 300ZM295.161 300H227.419C226.136 300 224.905 299.49 223.998 298.583C223.09 297.675 222.581 296.445 222.581 295.161C222.581 293.878 223.09 292.647 223.998 291.74C224.905 290.832 226.136 290.323 227.419 290.323H290.323V226.674C290.323 225.391 290.832 224.16 291.74 223.253C292.647 222.345 293.878 221.835 295.161 221.835C296.445 221.835 297.675 222.345 298.583 223.253C299.49 224.16 300 225.391 300 226.674V295.161C300 296.445 299.49 297.675 298.583 298.583C297.675 299.49 296.445 300 295.161 300ZM295.161 76.6742C293.878 76.6742 292.647 76.1644 291.74 75.257C290.832 74.3495 290.323 73.1188 290.323 71.8355V9.67742H226.483C225.2 9.67742 223.969 9.16763 223.062 8.26019C222.154 7.35276 221.644 6.12202 221.644 4.83871C221.644 3.5554 222.154 2.32466 223.062 1.41723C223.969 0.509791 225.2 0 226.483 0L295.161 0C296.445 0 297.675 0.509791 298.583 1.41723C299.49 2.32466 300 3.5554 300 4.83871V71.8355C300 73.1188 299.49 74.3495 298.583 75.257C297.675 76.1644 296.445 76.6742 295.161 76.6742ZM4.83871 77.4968C3.5554 77.4968 2.32466 76.987 1.41723 76.0795C0.509791 75.1721 0 73.9414 0 72.6581V4.83871C0 3.5554 0.509791 2.32466 1.41723 1.41723C2.32466 0.509791 3.5554 0 4.83871 0L71.6444 0C72.9277 0 74.1584 0.509791 75.0658 1.41723C75.9733 2.32466 76.4831 3.5554 76.4831 4.83871C76.4831 6.12202 75.9733 7.35276 75.0658 8.26019C74.1584 9.16763 72.9277 9.67742 71.6444 9.67742H9.67742V72.6581C9.67742 73.9414 9.16763 75.1721 8.26019 76.0795C7.35276 76.987 6.12202 77.4968 4.83871 77.4968Z" fill="#6B99B0"/>
<path d="M136.466 119.39C138.351 115.442 150.203 89.475 137.431 61.0912C122.41 27.6992 86.758 20.8452 83.7895 20.3275C82.6209 27.4307 77.6492 62.3105 101.187 92.3734C113.245 107.775 127.873 115.633 136.466 119.39Z" fill="#64C35B"/>
<path d="M137.434 61.0912C122.41 27.6992 86.758 20.8452 83.7895 20.3275C83.4665 22.3225 83.2091 24.3276 83.0177 26.3395C95.5403 30.8299 115.391 41.2525 125.642 64.0379C135.048 84.9436 131.098 104.504 127.609 114.956C130.483 116.585 133.44 118.065 136.466 119.39C138.351 115.442 150.203 89.475 137.434 61.0912Z" fill="#44AC3D"/>
<path d="M150.07 134.826C155.678 114.266 172.423 99.0556 191.809 96.6169C216.745 93.4814 242.683 111.902 248.158 140.284C244.294 143.473 225.319 158.458 197.376 156.658C170.236 154.914 153.673 138.564 150.07 134.826Z" fill="#64C35B"/>
<path d="M200.54 143.998C175.846 142.408 159.946 128.756 154.561 123.489C152.653 127.091 151.147 130.892 150.07 134.823C153.675 138.559 170.236 154.911 197.376 156.658C225.319 158.456 244.294 143.473 248.158 140.284C247.581 137.377 246.774 134.52 245.744 131.741C237.484 137.219 221.548 145.35 200.54 143.998Z" fill="#44AC3D"/>
<path d="M135.194 167.04C123.808 147.331 100.655 138.958 82.1275 145.94C68.3614 151.127 58.5678 164.257 56.3105 179.7C69.1322 184.447 82.941 185.898 96.4694 183.919C110.644 181.82 124.007 175.995 135.194 167.04Z" fill="#64C35B"/>
<path d="M127.648 157.166C117.388 164.347 105.596 169.038 93.208 170.867C81.8924 172.526 70.3543 171.784 59.3443 168.69C57.883 172.22 56.8647 175.917 56.3129 179.698C69.1346 184.445 82.9433 185.896 96.4717 183.917C110.646 181.816 124.009 175.992 135.196 167.037C133.116 163.435 130.578 160.118 127.648 157.166Z" fill="#44AC3D"/>
<path d="M160.449 130.2C160.014 129.737 159.492 129.363 158.913 129.102C158.334 128.84 157.708 128.696 157.073 128.676C156.438 128.657 155.805 128.763 155.211 128.988C154.616 129.213 154.072 129.554 153.61 129.989C150.636 132.784 148.227 136.364 146.337 140.054C144.566 131.238 142.241 122.542 139.374 114.019C138.953 112.819 138.076 111.832 136.932 111.274C135.789 110.715 134.472 110.629 133.266 111.035C132.06 111.441 131.062 112.305 130.489 113.441C129.915 114.577 129.812 115.893 130.202 117.104C135.803 133.742 139.23 151.033 140.4 168.549C137.678 165.819 134.454 163.639 130.906 162.131C129.725 161.629 128.393 161.616 127.202 162.097C126.012 162.577 125.061 163.51 124.559 164.692C124.057 165.873 124.045 167.205 124.525 168.395C125.005 169.586 125.939 170.537 127.12 171.039C135.063 174.416 140.277 181.406 140.724 189.281C140.729 189.346 140.746 189.404 140.753 189.469C140.623 193.588 140.375 197.702 140.008 201.806C139.938 202.445 139.995 203.092 140.178 203.709C140.361 204.326 140.665 204.9 141.072 205.398C141.479 205.896 141.982 206.308 142.55 206.61C143.119 206.911 143.741 207.096 144.382 207.154C145.023 207.212 145.669 207.142 146.282 206.947C146.895 206.752 147.463 206.437 147.953 206.02C148.443 205.603 148.845 205.093 149.136 204.519C149.426 203.945 149.599 203.318 149.644 202.677C151.11 186.624 150.8 170.458 148.72 154.473C149.983 151.077 153.356 143.509 160.236 137.039C160.7 136.605 161.073 136.083 161.335 135.504C161.597 134.924 161.741 134.299 161.761 133.664C161.781 133.029 161.675 132.396 161.45 131.801C161.225 131.207 160.885 130.663 160.449 130.2Z" fill="#36932E"/>
<path d="M163.118 197.027H127.754C89.0298 197.027 57.6362 228.421 57.6362 267.145V276.779H233.235V267.145C233.235 228.421 201.842 197.027 163.118 197.027Z" fill="#C19774"/>
<path d="M233.235 276.779C238.06 233.565 204.786 197.027 160.742 197.027H137.39C125.497 197.027 111.353 197.574 101.216 202.241C106.633 201.08 115.115 202.531 120.881 202.531H136.974C179.168 202.531 213.685 235.304 216.515 276.779H233.235Z" fill="#956C4C"/>
<path d="M98.5573 254.344H92.042C90.7587 254.344 89.5279 253.835 88.6205 252.927C87.713 252.02 87.2032 250.789 87.2032 249.506C87.2032 248.222 87.713 246.992 88.6205 246.084C89.5279 245.177 90.7587 244.667 92.042 244.667H98.5573C99.8406 244.667 101.071 245.177 101.979 246.084C102.886 246.992 103.396 248.222 103.396 249.506C103.396 250.789 102.886 252.02 101.979 252.927C101.071 253.835 99.8406 254.344 98.5573 254.344ZM203.124 254.344H196.609C195.326 254.344 194.095 253.835 193.187 252.927C192.28 252.02 191.77 250.789 191.77 249.506C191.77 248.222 192.28 246.992 193.187 246.084C194.095 245.177 195.326 244.667 196.609 244.667H203.124C204.408 244.667 205.638 245.177 206.546 246.084C207.453 246.992 207.963 248.222 207.963 249.506C207.963 250.789 207.453 252.02 206.546 252.927C205.638 253.835 204.408 254.344 203.124 254.344ZM165.058 243.145H158.543C157.259 243.145 156.029 242.635 155.121 241.728C154.214 240.82 153.704 239.59 153.704 238.306C153.704 237.023 154.214 235.792 155.121 234.885C156.029 233.978 157.259 233.468 158.543 233.468H165.058C166.341 233.468 167.572 233.978 168.48 234.885C169.387 235.792 169.897 237.023 169.897 238.306C169.897 239.59 169.387 240.82 168.48 241.728C167.572 242.635 166.341 243.145 165.058 243.145ZM131.579 226.827H125.064C123.78 226.827 122.55 226.317 121.642 225.409C120.735 224.502 120.225 223.271 120.225 221.988C120.225 220.705 120.735 219.474 121.642 218.566C122.55 217.659 123.78 217.149 125.064 217.149H131.579C132.862 217.149 134.093 217.659 135.001 218.566C135.908 219.474 136.418 220.705 136.418 221.988C136.418 223.271 135.908 224.502 135.001 225.409C134.093 226.317 132.862 226.827 131.579 226.827ZM137.083 262.599H130.568C129.284 262.599 128.054 262.089 127.146 261.182C126.239 260.275 125.729 259.044 125.729 257.76C125.729 256.477 126.239 255.246 127.146 254.339C128.054 253.432 129.284 252.922 130.568 252.922H137.083C138.366 252.922 139.597 253.432 140.505 254.339C141.412 255.246 141.922 256.477 141.922 257.76C141.922 259.044 141.412 260.275 140.505 261.182C139.597 262.089 138.366 262.599 137.083 262.599Z" fill="white"/>
</svg>
