<svg width="300" height="300" viewBox="0 0 300 300" fill="none" xmlns="http://www.w3.org/2000/svg">
<g clip-path="url(#clip0_675_8214)">
<path d="M53.2258 300H246.774C249.341 300 251.802 298.98 253.617 297.166C255.432 295.351 256.452 292.889 256.452 290.323V9.67742C256.452 7.11081 255.432 4.64932 253.617 2.83445C251.802 1.01958 249.341 0 246.774 0L53.2258 0C50.6592 0 48.1977 1.01958 46.3829 2.83445C44.568 4.64932 43.5484 7.11081 43.5484 9.67742V290.323C43.5484 292.889 44.568 295.351 46.3829 297.166C48.1977 298.98 50.6592 300 53.2258 300Z" fill="#E3E4E8"/>
<path d="M64.8387 37.7928H235.161V251.011H64.8387V37.7928ZM159.619 23.7363H140.383C139.1 23.7363 137.869 23.2265 136.962 22.3191C136.054 21.4117 135.544 20.1809 135.544 18.8976C135.544 17.6143 136.054 16.3836 136.962 15.4761C137.869 14.5687 139.1 14.0589 140.383 14.0589H159.619C160.903 14.0589 162.133 14.5687 163.041 15.4761C163.948 16.3836 164.458 17.6143 164.458 18.8976C164.458 20.1809 163.948 21.4117 163.041 22.3191C162.133 23.2265 160.903 23.7363 159.619 23.7363Z" fill="white"/>
<path d="M150 285.506C155.226 285.506 159.462 281.029 159.462 275.506C159.462 269.984 155.226 265.507 150 265.507C144.774 265.507 140.538 269.984 140.538 275.506C140.538 281.029 144.774 285.506 150 285.506Z" fill="white"/>
<path d="M150 207.46C148.717 207.46 147.486 206.95 146.578 206.042C145.671 205.135 145.161 203.904 145.161 202.621V114.653C145.161 113.37 145.671 112.139 146.578 111.232C147.486 110.324 148.717 109.815 150 109.815C151.283 109.815 152.514 110.324 153.421 111.232C154.329 112.139 154.839 113.37 154.839 114.653V202.621C154.839 203.904 154.329 205.135 153.421 206.042C152.514 206.95 151.283 207.46 150 207.46Z" fill="#F9B341"/>
<path d="M148.718 62.6202C148.718 62.6202 129.286 86.204 129.523 98.0903C129.757 109.977 140.134 122.306 148.723 122.415C157.311 122.526 170.782 110.935 170.475 99.0484C170.098 84.4452 148.718 62.6202 148.718 62.6202Z" fill="#FFD291"/>
<path d="M148.718 62.6202C148.718 62.6202 146.197 65.6879 142.994 70.142C149.303 77.8137 157.858 89.8573 158.095 99.0508C158.33 108.15 150.491 117.056 142.95 120.692C144.876 121.754 146.84 122.393 148.72 122.417C157.309 122.528 170.78 110.937 170.473 99.0508C170.098 84.4452 148.718 62.6202 148.718 62.6202Z" fill="#FCC054"/>
<path d="M189.348 131.574C189.348 131.574 167.647 142.614 158.998 150.094C150.351 157.577 147.428 170.405 152.47 174.769C157.515 179.134 166.79 176.642 175.396 169.123C185.969 159.886 189.348 131.574 189.348 131.574Z" fill="#FFD291"/>
<path d="M182.388 135.264C177.888 144.402 176.644 156.208 170.446 161.623C163.108 168.034 155.294 170.773 150.019 168.74C150.128 171.281 150.919 173.429 152.47 174.769C157.515 179.134 166.79 176.642 175.396 169.123C185.969 159.886 189.346 131.574 189.346 131.574C189.346 131.574 186.46 133.045 182.388 135.264Z" fill="#FCC054"/>
<path d="M110.652 129.735C110.652 129.735 132.353 140.775 141.002 148.256C149.649 155.739 152.572 168.566 147.53 172.931C142.488 177.295 133.21 174.803 124.604 167.284C114.031 158.047 110.652 129.735 110.652 129.735Z" fill="#FFD291"/>
<path d="M117.612 133.427C122.112 142.565 123.356 154.372 129.554 159.786C136.892 166.198 144.706 168.936 149.981 166.904C149.872 169.444 149.081 171.593 147.53 172.933C142.486 177.298 133.21 174.806 124.604 167.286C114.031 158.049 110.654 129.738 110.654 129.738C110.654 129.738 113.54 131.206 117.612 133.427Z" fill="#FCC054"/>
<path d="M156.494 191.01H143.504C111.435 191.01 85.4395 217.006 85.4395 249.075V251.011H214.558V249.075C214.558 217.006 188.562 191.01 156.494 191.01Z" fill="#C19774"/>
<path d="M155.144 191.01H144.856C143.252 191.01 141.67 191.093 140.098 191.219C170.683 193.669 194.753 219.491 194.753 251.011H214.558C214.558 217.873 187.957 191.01 155.144 191.01Z" fill="#956C4C"/>
<path d="M115.529 235.331H110.739C109.455 235.331 108.225 234.821 107.317 233.913C106.41 233.006 105.9 231.775 105.9 230.492C105.9 229.209 106.41 227.978 107.317 227.07C108.225 226.163 109.455 225.653 110.739 225.653H115.529C116.812 225.653 118.043 226.163 118.951 227.07C119.858 227.978 120.368 229.209 120.368 230.492C120.368 231.775 119.858 233.006 118.951 233.913C118.043 234.821 116.812 235.331 115.529 235.331ZM192.419 235.331H187.628C186.345 235.331 185.114 234.821 184.207 233.913C183.299 233.006 182.79 231.775 182.79 230.492C182.79 229.209 183.299 227.978 184.207 227.07C185.114 226.163 186.345 225.653 187.628 225.653H192.419C193.702 225.653 194.933 226.163 195.84 227.07C196.747 227.978 197.257 229.209 197.257 230.492C197.257 231.775 196.747 233.006 195.84 233.913C194.933 234.821 193.702 235.331 192.419 235.331ZM164.429 226.904H159.639C158.355 226.904 157.125 226.394 156.217 225.487C155.31 224.579 154.8 223.349 154.8 222.065C154.8 220.782 155.31 219.551 156.217 218.644C157.125 217.736 158.355 217.227 159.639 217.227H164.429C165.712 217.227 166.943 217.736 167.851 218.644C168.758 219.551 169.268 220.782 169.268 222.065C169.268 223.349 168.758 224.579 167.851 225.487C166.943 226.394 165.712 226.904 164.429 226.904ZM139.812 214.628H135.022C133.738 214.628 132.508 214.118 131.6 213.211C130.693 212.304 130.183 211.073 130.183 209.79C130.183 208.506 130.693 207.275 131.6 206.368C132.508 205.461 133.738 204.951 135.022 204.951H139.812C141.095 204.951 142.326 205.461 143.234 206.368C144.141 207.275 144.651 208.506 144.651 209.79C144.651 211.073 144.141 212.304 143.234 213.211C142.326 214.118 141.095 214.628 139.812 214.628ZM143.857 241.541H139.067C137.784 241.541 136.553 241.031 135.645 240.124C134.738 239.216 134.228 237.986 134.228 236.702C134.228 235.419 134.738 234.188 135.645 233.281C136.553 232.373 137.784 231.864 139.067 231.864H143.857C145.141 231.864 146.371 232.373 147.279 233.281C148.186 234.188 148.696 235.419 148.696 236.702C148.696 237.986 148.186 239.216 147.279 240.124C146.371 241.031 145.141 241.541 143.857 241.541Z" fill="white"/>
</g>
<defs>
<clipPath id="clip0_675_8214">
<rect width="300" height="300" fill="white"/>
</clipPath>
</defs>
</svg>
